<svg width="71" height="78" viewBox="0 0 71 78" fill="none" xmlns="http://www.w3.org/2000/svg">
<g clip-path="url(#clip0_239_315)">
<path d="M12.2026 29.1126V22.7307H18.5456C23.7813 22.7307 26.8205 21.1555 28.3565 18.6391C31.6635 18.4396 33.97 17.5288 35.5001 16.1109C37.0301 17.5287 39.3367 18.4395 42.6437 18.6391C44.1796 21.1555 47.2189 22.7307 52.4546 22.7307H58.7975V29.1126C58.7975 30.8022 60.1645 32.172 61.8509 32.172C62.047 32.172 62.2384 32.1527 62.4242 32.1173C63.8364 31.8484 64.9043 30.6058 64.9043 29.1126V6.30426C64.9043 4.3323 47.4359 -0.32419 35.5001 0.201197C23.5643 -0.32419 6.09583 4.33238 6.09583 6.30426V29.1126C6.09583 30.6057 7.16379 31.8483 8.576 32.1172C8.7618 32.1525 8.95318 32.1719 9.14926 32.1719C10.8356 32.172 12.2026 30.8022 12.2026 29.1126Z" fill="#488AED"/>
<path d="M64.4434 65.7575C64.3468 65.7619 64.2407 65.7664 64.1244 65.7713C61.8983 65.8629 56.2465 66.0019 54.4032 65.1585C52.4529 64.2661 52.5133 59.5438 58.2268 59.5438L58.2597 59.4834C56.6566 59.4007 55.1862 59.2197 54.4032 58.8615C52.4529 57.9691 52.5133 53.2468 58.2268 53.2468L58.5889 53.202C56.8601 53.1275 55.2395 52.9472 54.4032 52.5645C52.5812 51.7308 52.5147 47.5549 57.1725 47.0091C56.0114 46.9074 55.0045 46.7368 54.4032 46.4616C52.4529 45.5692 52.5133 40.8468 58.2268 40.8468C60.1614 40.8468 62.2317 40.8056 64.1243 40.878C64.2312 40.8821 64.3376 40.8864 64.4433 40.8913C64.8135 40.9082 65.1755 40.9302 65.5279 40.9581V34.8731C65.5279 34.8535 65.5181 34.8371 65.5042 34.8247L65.5144 34.8223C65.5923 34.8037 65.5892 34.702 65.5104 34.6872L64.7284 34.5404L64.1663 34.6725L38.9661 40.5948C38.6772 40.663 38.6233 41.0114 38.8711 41.1528C38.7057 42.0511 37.2388 42.2272 35.453 42.2272C35.4404 42.2272 35.4281 42.227 35.4156 42.227C33.6467 42.2246 32.1991 42.0448 32.0349 41.1528C32.2825 41.0113 32.2287 40.663 31.9398 40.5948L6.73958 34.6724L6.17741 34.5403L5.39547 34.687C5.31669 34.7019 5.31365 34.8035 5.39148 34.8222L5.40161 34.8245C5.38781 34.8369 5.37793 34.8533 5.37793 34.873V40.9656C5.85342 40.9266 6.3471 40.8983 6.85441 40.8786C6.96014 40.8746 7.06652 40.8708 7.17337 40.8675C8.98412 40.8097 10.9397 40.8467 12.7733 40.8467C18.4869 40.8467 18.5473 45.5691 16.597 46.4614C15.9957 46.7366 14.9887 46.9072 13.8277 47.0089C18.4855 47.5547 18.419 51.7307 16.597 52.5643C15.7607 52.947 14.1401 53.1274 12.4113 53.2018L12.7733 53.2466C18.4869 53.2466 18.5473 57.969 16.597 58.8614C15.814 59.2195 14.3436 59.4006 12.7405 59.4832L12.7733 59.5436C18.4869 59.5436 18.5473 64.2659 16.597 65.1583C14.831 65.9663 9.56886 65.8726 7.17329 65.7828C7.06038 65.7785 6.95384 65.7743 6.85433 65.7702C6.2979 65.7472 5.96099 65.7274 5.96099 65.7274C5.76634 65.7274 5.5717 65.7228 5.37793 65.712V71.2324L32.0188 76.635V52.8667V42.2197V41.1623C32.0188 41.1623 32.0188 41.1623 32.0188 41.1623V42.2197V52.8667V75.9507C32.0188 77.0022 33.5563 77.8546 35.453 77.8546C37.3497 77.8546 38.8871 77.0022 38.8871 75.9507V76.635L65.5279 71.2325V65.7169C65.3653 65.7242 65.2023 65.7275 65.0392 65.7275C65.0391 65.7275 64.8195 65.7404 64.4434 65.7575ZM38.8871 41.1623C38.887 41.1623 38.887 41.1623 38.8871 41.1623V41.1623Z" fill="#FFE461"/>
<path d="M51.2225 36.2785V32.2334C51.2225 32.2334 36.0909 38.0766 35.6707 39.0504C35.2504 40.0242 35.453 42.227 35.453 42.227C37.2388 42.227 38.7057 42.0509 38.8712 41.1527C38.6234 41.0112 38.6772 40.6628 38.9661 40.5946L64.1663 34.6723L62.424 34.3383L61.0125 34.0676C61.0125 34.0676 56.4374 35.0812 51.2225 36.2785Z" fill="#FFFAEE"/>
<path d="M32.019 41.1624H32.0188V42.2197H32.019V41.1624Z" fill="#FFFAEE"/>
<path d="M31.9397 40.5946C32.2287 40.6628 32.2825 41.0112 32.0348 41.1527C32.1991 42.0446 33.6468 42.2245 35.4155 42.2269C35.3399 41.4515 35.1105 40.2283 34.4132 39.9459C31.9802 38.9604 9.89333 34.0676 9.89333 34.0676L8.57593 34.3203L6.7395 34.6723L31.9397 40.5946Z" fill="#FFFAEE"/>
<path d="M34.4131 39.9458C35.1104 40.2282 35.3398 41.4514 35.4154 42.2268C35.4279 42.2268 35.4402 42.2269 35.4528 42.2269C35.4528 42.2269 35.2501 40.0242 35.6704 39.0503C36.0908 38.0765 51.2223 32.2333 51.2223 32.2333V36.2784C56.4372 35.0811 61.0122 34.0675 61.0122 34.0675L62.4238 34.3382C62.4238 34.3328 62.424 34.3274 62.424 34.3219V32.1172C62.2382 32.1525 62.0468 32.1719 61.8507 32.1719C60.1643 32.1719 58.7973 30.8021 58.7973 29.1126V22.7307H52.4544C47.2187 22.7307 44.1794 21.1554 42.6435 18.639C39.3364 18.4395 37.03 17.5287 35.4999 16.1108C33.9698 17.5286 31.6633 18.4394 28.3563 18.639C26.8203 21.1554 23.7811 22.7307 18.5454 22.7307H12.2024V29.1126C12.2024 30.8021 10.8354 32.1719 9.14906 32.1719C8.95306 32.1719 8.7616 32.1526 8.57581 32.1172V34.3202L9.8932 34.0675C9.8932 34.0675 31.9802 38.9604 34.4131 39.9458Z" fill="white"/>
<path d="M65.5277 40.9578C65.1752 40.93 64.8133 40.908 64.4431 40.891C64.3374 40.8862 64.231 40.8819 64.1241 40.8778C62.2315 40.8055 60.1611 40.8466 58.2266 40.8466C52.5131 40.8466 52.4527 45.569 54.403 46.4614C55.0044 46.7365 56.0113 46.9071 57.1723 47.0089C52.5145 47.5546 52.581 51.7307 54.403 52.5643C55.2393 52.947 56.86 53.1274 58.5887 53.2018L58.2266 53.2466C52.5131 53.2466 52.4527 57.9689 54.403 58.8613C55.186 59.2195 56.6564 59.4005 58.2595 59.4831L58.2266 59.5435C52.5131 59.5435 52.4527 64.2659 54.403 65.1583C56.2463 66.0017 61.8981 65.8626 64.1242 65.7711C64.2404 65.7662 64.3466 65.7617 64.4431 65.7573C64.8194 65.7402 65.039 65.7273 65.039 65.7273C65.2021 65.7273 65.3651 65.724 65.5277 65.7167C68.2568 65.5933 70.8404 64.2548 70.8404 55.6615V43.7583C70.8404 41.8757 68.5558 41.196 65.5277 40.9578Z" fill="white"/>
<path d="M6.85422 65.7702C6.95374 65.7744 7.06027 65.7786 7.17318 65.7829C9.56876 65.8727 14.8309 65.9664 16.5969 65.1584C18.5472 64.266 18.4868 59.5437 12.7732 59.5437L12.7404 59.4833C14.3435 59.4007 15.8139 59.2196 16.5969 58.8614C18.5472 57.969 18.4868 53.2467 12.7732 53.2467L12.4112 53.2019C14.14 53.1274 15.7605 52.9471 16.5969 52.5644C18.4189 51.7307 18.4854 47.5548 13.8276 47.009C14.9886 46.9073 15.9955 46.7367 16.5969 46.4615C18.5472 45.5692 18.4868 40.8467 12.7732 40.8467C10.9396 40.8467 8.98402 40.8098 7.17326 40.8675C7.06649 40.8709 6.96012 40.8746 6.8543 40.8787C6.34699 40.8984 5.85331 40.9266 5.37782 40.9656C2.39695 41.2103 0.159424 41.8953 0.159424 43.7583V55.6615C0.159424 64.1557 2.68394 65.5616 5.37782 65.712C5.57159 65.7229 5.76624 65.7273 5.96088 65.7273C5.96088 65.7273 6.29779 65.7472 6.85422 65.7702Z" fill="white"/>
<path d="M64.1243 69.0924L41.2531 73.7306V43.181C41.8025 43.0671 43.8115 42.5797 48.3574 41.4725C54.1878 40.0523 62.8558 37.941 64.1242 37.7416C64.1242 38.1496 64.1243 39.2779 64.1243 40.8779C64.2311 40.882 64.3376 40.8863 64.4432 40.8911V37.9285C64.4432 37.7252 64.4431 37.6203 64.4381 37.5607L64.4427 37.5603C64.4415 37.5448 64.4374 37.5264 64.4293 37.5078C64.4242 37.492 64.4174 37.4824 64.4081 37.4721C64.3801 37.4363 64.333 37.4069 64.2577 37.4069C63.7405 37.4069 56.7167 39.1075 48.282 41.162C44.5641 42.0676 41.348 42.851 41.0934 42.888C41.0681 42.8881 41.0427 42.8942 41.0195 42.9063C40.9671 42.934 40.9342 42.9884 40.9342 43.0478V73.9259C40.9342 73.9739 40.9557 74.0192 40.9927 74.0496C41.0214 74.0732 41.0572 74.0857 41.0937 74.0857C41.1043 74.0857 41.1149 74.0847 41.1253 74.0825L64.3155 69.3797C64.3898 69.3647 64.4433 69.2991 64.4433 69.2231V65.7574C64.3467 65.7618 64.2406 65.7664 64.1243 65.7713C64.1243 67.4995 64.1243 68.7059 64.1243 69.0924Z" fill="#EFC059"/>
<path d="M30.2781 42.9063C30.2548 42.8941 30.2295 42.888 30.2041 42.888C29.9488 42.8508 26.7256 42.0657 22.9994 41.1581C14.5734 39.1057 7.55661 37.4067 7.03988 37.4067C6.96461 37.4067 6.91748 37.4361 6.88957 37.472C6.88024 37.4822 6.87347 37.4919 6.86836 37.5077C6.86023 37.5263 6.85608 37.5447 6.85489 37.5602L6.85951 37.5605C6.85441 37.62 6.85441 37.725 6.85441 37.9284V40.8786C6.96014 40.8745 7.06652 40.8707 7.17337 40.8674C7.17337 39.2729 7.17337 38.1486 7.17345 37.7414C8.43926 37.9403 17.0993 40.0497 22.9241 41.4685C27.4805 42.5784 29.494 43.0668 30.0444 43.1809V73.7305L7.17321 69.0924C7.17321 68.7068 7.17321 67.505 7.17321 65.7829C7.0603 65.7786 6.95376 65.7744 6.85425 65.7703V69.2231C6.85425 69.299 6.90767 69.3646 6.98207 69.3797L30.1722 74.0825C30.1827 74.0846 30.1933 74.0857 30.2039 74.0857C30.2404 74.0857 30.2761 74.0731 30.3048 74.0496C30.3418 74.0192 30.3633 73.9738 30.3633 73.9259V43.0478C30.3633 42.9883 30.3305 42.9339 30.2781 42.9063Z" fill="#EFC059"/>
<path d="M24.2104 25.1345C30.0869 25.1345 32.0373 29.3981 32.0373 29.3981C32.0373 29.3981 30.0869 33.6617 24.2104 33.6617C18.3339 33.6617 16.3835 29.3981 16.3835 29.3981C16.3835 29.3981 18.3339 25.1345 24.2104 25.1345Z" fill="white"/>
<path d="M46.86 25.1345C52.7365 25.1345 54.6868 29.3981 54.6868 29.3981C54.6868 29.3981 52.7365 33.6617 46.86 33.6617C40.9835 33.6617 39.0331 29.3981 39.0331 29.3981C39.0331 29.3981 40.9835 25.1345 46.86 25.1345Z" fill="white"/>
<path d="M17.9886 31.6505C18.474 32.074 19.1184 32.5319 19.9373 32.9177C20.0915 33.0081 20.2518 33.0891 20.418 33.1588L19.7311 34.7326C19.6958 34.8135 19.7326 34.9076 19.8133 34.943C19.8341 34.9521 19.8558 34.9565 19.8771 34.9565C19.9385 34.9565 19.9971 34.9207 20.0232 34.8607L20.7176 33.2699C20.8632 33.3177 21.012 33.3581 21.1644 33.3892C22.0093 33.6455 22.99 33.8116 24.1166 33.8204V35.6C24.1166 35.6882 24.188 35.7598 24.276 35.7598C24.3641 35.7598 24.4355 35.6882 24.4355 35.6V33.8188C25.7579 33.7938 26.8752 33.5508 27.8054 33.2033L28.5289 34.8606C28.5551 34.9206 28.6136 34.9564 28.675 34.9564C28.6964 34.9564 28.7181 34.952 28.7388 34.9429C28.8195 34.9076 28.8564 34.8134 28.821 34.7325L28.1025 33.0863C29.1055 32.6703 29.8737 32.1374 30.4321 31.6504C31.666 30.5742 32.1616 29.5095 32.1822 29.4646C32.2015 29.4225 32.2015 29.3737 32.1822 29.3315C32.1617 29.2866 31.666 28.2219 30.4321 27.1458C29.2965 26.1554 27.2953 24.9747 24.2103 24.9747H21.5985C21.5105 24.9747 21.439 25.0463 21.439 25.1345C21.439 25.2146 21.4978 25.2809 21.5745 25.2926C19.9332 25.7109 18.7607 26.4724 17.9885 27.1458C16.7545 28.222 16.2589 29.2867 16.2384 29.3315C16.219 29.3737 16.219 29.4225 16.2384 29.4646C16.259 29.5095 16.7547 30.5744 17.9886 31.6505ZM31.8591 29.3982C31.731 29.6451 31.2261 30.5379 30.2111 31.4197C29.1176 32.3697 27.1889 33.502 24.2104 33.502C23.6645 33.502 23.1542 33.4638 22.6776 33.3957C24.95 32.9945 25.9937 31.1277 25.9936 29.4206C25.9934 27.6778 24.9054 25.769 22.5282 25.4229C23.0488 25.3407 23.6085 25.2944 24.2104 25.2944C27.189 25.2944 29.1177 26.4267 30.2111 27.3767C31.2262 28.2584 31.731 29.1512 31.8591 29.3982ZM18.7914 26.9267C18.2528 27.6148 17.9304 28.4805 17.9304 29.4209C17.9304 30.323 18.2266 31.1569 18.7262 31.8308C18.5371 31.6927 18.3648 31.5543 18.2098 31.4197C17.1948 30.5379 16.69 29.6453 16.5618 29.3983C16.712 29.1102 17.3795 27.9431 18.7914 26.9267Z" fill="#161616"/>
<path d="M16.3119 28.5968C16.335 28.6085 16.3594 28.6139 16.3834 28.6139C16.4417 28.6139 16.498 28.5818 16.526 28.526C17.8152 25.9589 20.7575 24.3652 24.2066 24.3652C24.2098 24.3652 24.2132 24.3652 24.2164 24.3652C27.6708 24.3683 30.6131 25.9624 31.8948 28.5257C31.9342 28.6046 32.0301 28.6367 32.1088 28.597C32.1875 28.5575 32.2194 28.4615 32.1799 28.3826C30.8439 25.7106 27.7924 24.0488 24.2166 24.0457C24.2131 24.0457 24.2102 24.0457 24.2066 24.0457C20.6366 24.0457 17.5846 25.7069 16.241 28.3822C16.2015 28.4611 16.2332 28.5572 16.3119 28.5968Z" fill="#161616"/>
<path d="M38.9613 28.5968C38.9842 28.6085 39.0087 28.6139 39.0328 28.6139C39.0911 28.6139 39.1474 28.5818 39.1754 28.526C40.4645 25.9589 43.4068 24.3652 46.8561 24.3652C46.8592 24.3652 46.8626 24.3652 46.8657 24.3652C50.3203 24.3683 53.2624 25.9625 54.5441 28.5257C54.5836 28.6046 54.6794 28.6367 54.7582 28.597C54.8369 28.5575 54.8688 28.4615 54.8294 28.3826C53.4933 25.7106 50.4419 24.0488 46.8661 24.0457C46.8627 24.0457 46.8596 24.0457 46.8562 24.0457C43.286 24.0457 40.2341 25.7069 38.8904 28.3822C38.8509 28.4611 38.8826 28.5572 38.9613 28.5968Z" fill="#161616"/>
<path d="M70.3765 42.2533C69.501 41.381 67.7778 40.9853 65.6871 40.8096V35.2812C65.6871 35.0864 65.687 34.9686 65.6826 34.8941C65.7141 34.8539 65.7318 34.8035 65.7305 34.7495C65.7293 34.7031 65.7144 34.66 65.689 34.6243C65.6677 34.58 65.6265 34.5462 65.5747 34.5365L65.5405 34.53C65.5403 34.53 65.54 34.53 65.5397 34.5299H65.5395L64.7576 34.3831C64.7359 34.3792 64.7134 34.3796 64.6918 34.3846L64.1625 34.509L62.5834 34.2062V32.2462C64.0031 31.9129 65.0636 30.6349 65.0636 29.1125V6.30424C65.0636 5.08808 60.1908 3.47781 55.6304 2.37622C49.4706 0.888268 42.6679 0 37.4336 0C36.7641 0 36.1195 0.0135821 35.5 0.0405065C34.8805 0.0135821 34.236 0 33.5665 0C28.3321 0 21.5295 0.888268 15.3694 2.37622C10.8092 3.47781 5.9363 5.08816 5.9363 6.30424V29.1125C5.9363 30.6349 6.99693 31.913 8.41648 32.2462V34.1881L6.74296 34.509L6.21372 34.3846C6.19219 34.3796 6.16978 34.3793 6.14793 34.3831L5.36608 34.5299C5.36576 34.5299 5.36544 34.5299 5.36512 34.53L5.33944 34.5349C5.3392 34.535 5.33888 34.535 5.33865 34.5351L5.33107 34.5365V34.5367C5.26983 34.5506 5.23554 34.5857 5.21776 34.6227C5.19168 34.6587 5.17629 34.7024 5.17518 34.7496C5.17382 34.8036 5.19152 34.854 5.22302 34.8942C5.21864 34.9686 5.21864 35.0863 5.21864 35.2813V40.8175C3.17025 40.9972 1.48597 41.3943 0.623573 42.2535C0.209798 42.6656 0 43.1719 0 43.7582V55.6616C0 59.8375 0.604276 62.6331 1.84735 64.2081C2.80959 65.4273 4.0427 65.7771 5.21848 65.8625V71.2325C5.21848 71.3084 5.2719 71.3739 5.3463 71.3891L31.9871 76.7916C31.9976 76.7938 32.0082 76.7948 32.0187 76.7948C32.0552 76.7948 32.091 76.7822 32.1197 76.7587C32.1241 76.7551 32.1275 76.7506 32.1314 76.7467C32.7152 77.6024 34.1342 78.0001 35.4498 78.0001C36.7695 78.0001 38.1915 77.6027 38.7752 76.7476C38.7788 76.7513 38.7819 76.7554 38.786 76.7588C38.8148 76.7823 38.8505 76.7949 38.887 76.7949C38.8976 76.7949 38.9082 76.7938 38.9186 76.7917L65.5594 71.3891C65.6339 71.3741 65.6873 71.3085 65.6873 71.2325V65.8691C66.8911 65.7955 68.1647 65.46 69.1528 64.2082C70.3958 62.6332 71.0001 59.8376 71.0001 55.6617V43.7582C71 43.1719 70.7902 42.6656 70.3765 42.2533ZM70.681 55.6616C70.681 64.8021 67.7688 65.5676 65.0391 65.5676C65.0359 65.5676 65.0328 65.5677 65.0297 65.5679C64.9469 65.5726 56.7219 66.0437 54.4693 65.0131C53.6662 64.6456 53.2375 63.5537 53.4721 62.4733C53.6132 61.8235 54.3729 59.7034 58.2267 59.7034C58.274 59.7034 58.316 59.6823 58.3453 59.6496C59.1762 59.6908 60.038 59.7061 60.856 59.7061C63.0258 59.7061 64.8879 59.5995 65.0483 59.59C65.1363 59.5849 65.2034 59.5092 65.1982 59.4212C65.193 59.3331 65.1169 59.2654 65.0296 59.271C64.9468 59.2758 56.7218 59.7467 54.4693 58.7161C53.6661 58.3486 53.2374 57.2567 53.472 56.1763C53.6131 55.5265 54.3728 53.4065 58.2266 53.4065C58.274 53.4065 58.316 53.3854 58.3452 53.3525C59.176 53.3938 60.0373 53.409 60.8551 53.409C63.0254 53.4089 64.8879 53.3024 65.0483 53.2929C65.1363 53.2877 65.2034 53.2121 65.1982 53.124C65.193 53.036 65.1169 52.9675 65.0296 52.9739C64.9469 52.9788 56.7219 53.4498 54.4693 52.4191C53.6699 52.0534 53.2403 50.9798 53.47 49.9219C53.6018 49.3151 54.2853 47.4089 57.6346 47.2071C60.8151 47.4325 64.81 47.2043 65.0484 47.19C65.1364 47.1849 65.2035 47.1093 65.1983 47.0212C65.1931 46.9332 65.117 46.8655 65.0297 46.8711C64.9754 46.8741 61.4237 47.0775 58.3482 46.9271C58.3189 46.8923 58.2757 46.8698 58.2268 46.8698C58.0266 46.8698 57.8344 46.8754 57.6496 46.8859C56.3122 46.7925 55.1321 46.6193 54.4694 46.3161C53.6663 45.9486 53.2377 44.8569 53.4721 43.7765C53.6132 43.1267 54.373 41.0065 58.2268 41.0065C58.7393 41.0065 59.2614 41.0036 59.7871 41.0007C64.1286 40.9771 68.6177 40.9517 70.1516 42.48C70.5079 42.8351 70.6811 43.2532 70.6811 43.7583L70.681 55.6616ZM32.1783 75.9455V41.7395C32.7617 42.293 34.069 42.3868 35.4529 42.3868C36.8367 42.3868 38.1441 42.293 38.7275 41.7395V75.9459C38.6523 77.1376 36.9768 77.6805 35.4499 77.6805C33.9285 77.6804 32.2573 77.1375 32.1783 75.9455ZM0.318963 43.7582C0.318963 43.2531 0.49216 42.835 0.848522 42.4799C2.38234 40.9516 6.87166 40.977 11.2131 41.0006C11.7388 41.0036 12.2609 41.0064 12.7734 41.0064C16.6272 41.0064 17.387 43.1266 17.5281 43.7765C17.7626 44.8568 17.3339 45.9486 16.5308 46.316C15.8681 46.6193 14.6882 46.7924 13.3509 46.8858C13.1659 46.8753 12.9737 46.8697 12.7734 46.8697C12.7244 46.8697 12.6812 46.8923 12.6519 46.9271C9.57631 47.0775 6.02466 46.8741 5.97035 46.871C5.88359 46.8654 5.80696 46.9331 5.80178 47.0211C5.7966 47.1093 5.86366 47.1848 5.95161 47.19C6.18996 47.2042 10.1857 47.4327 13.3663 47.2071C16.7149 47.4092 17.3982 49.3151 17.53 49.9219C17.7596 50.9797 17.3301 52.0533 16.5308 52.4191C14.2783 53.4495 6.0532 52.9785 5.97027 52.9738C5.88248 52.9674 5.80688 53.0358 5.8017 53.124C5.79652 53.2121 5.86358 53.2877 5.95153 53.2928C6.11197 53.3023 7.97408 53.4089 10.1447 53.4089C10.9624 53.4089 11.8239 53.3936 12.6545 53.3524C12.6837 53.3853 12.7258 53.4064 12.7732 53.4064C16.627 53.4064 17.3868 55.5265 17.5279 56.1763C17.7625 57.2567 17.3337 58.3485 16.5307 58.716C14.2782 59.7466 6.05312 59.2757 5.97019 59.271C5.8824 59.2653 5.8068 59.333 5.80162 59.4211C5.79644 59.5092 5.8635 59.5848 5.95145 59.5899C6.11189 59.5994 7.9736 59.706 10.1438 59.706C10.9619 59.706 11.8236 59.6907 12.6545 59.6495C12.6837 59.6823 12.7258 59.7034 12.7731 59.7034C16.6269 59.7034 17.3867 61.8234 17.5278 62.4732C17.7624 63.5536 17.3337 64.6455 16.5307 65.013C14.2782 66.0435 6.05304 65.5726 5.97011 65.5679C5.967 65.5676 5.96389 65.5675 5.96078 65.5675C3.23118 65.5677 0.318963 64.8022 0.318963 55.6616V43.7582ZM6.25527 6.30424C6.25527 6.16738 6.43795 5.64767 8.78823 4.70459C10.4429 4.04059 12.8067 3.32409 15.4442 2.68693C21.5812 1.20457 28.3559 0.319578 33.5665 0.319578C39.3472 0.319578 46.2381 1.35781 46.2381 6.30424C46.2381 11.3855 42.9159 14.2533 36.6306 14.5981C36.5797 14.6009 36.5333 14.6278 36.5056 14.6706C35.0202 16.9611 32.2752 18.2426 28.347 18.4796C28.2949 18.4827 28.2477 18.5112 28.2205 18.5557C26.5942 21.2201 23.3391 22.5709 18.5456 22.5709H12.2027C12.1146 22.5709 12.0432 22.6425 12.0432 22.7307V29.1126C12.0432 30.7115 10.745 32.0121 9.1493 32.0121C7.55361 32.0121 6.25535 30.7115 6.25535 29.1126L6.25527 6.30424ZM62.2118 4.70459C64.5622 5.64775 64.7448 6.16746 64.7448 6.30424V29.1125C64.7448 30.7114 63.4466 32.0121 61.8509 32.0121C60.2552 32.0121 58.957 30.7114 58.957 29.1125V22.7306C58.957 22.6424 58.8855 22.5708 58.7975 22.5708H52.4545C47.6611 22.5708 44.4059 21.22 42.7797 18.5557C42.7525 18.511 42.7053 18.4826 42.6532 18.4795C39.6393 18.2977 37.3228 17.5002 35.7365 16.1047C36.11 15.7427 36.4408 15.3453 36.7284 14.9125C40.0256 14.7196 42.5438 13.8263 44.214 12.2569C45.7687 10.796 46.5571 8.79319 46.5571 6.30416C46.5571 3.12076 43.8802 1.09615 38.7511 0.337874C43.7555 0.4697 49.9237 1.32641 55.5558 2.68677C58.1934 3.32401 60.5572 4.04059 62.2118 4.70459ZM9.14922 32.3317C10.9207 32.3317 12.3621 30.8876 12.3621 29.1126V22.8905H18.5456C23.0424 22.8905 26.2261 21.7142 28.0277 19.3936C28.1896 19.4422 28.3463 19.4927 28.4961 19.545C31.2243 20.4972 33.0354 22.2943 33.7574 23.544C34.6932 25.1637 35.5531 27.8438 34.8962 30.0659C34.5302 31.3041 33.7308 32.2446 32.5201 32.861C32.4419 32.9009 32.4105 32.9965 32.4499 33.0751L35.056 38.2821C35.084 38.338 35.1402 38.3703 35.1987 38.3703C35.2227 38.3703 35.2471 38.3649 35.2701 38.3534C35.3488 38.3138 35.3806 38.2178 35.3411 38.1389L32.8051 33.0721C34.0186 32.4139 34.8246 31.4337 35.2021 30.1567C35.8877 27.8373 35.0011 25.0586 34.0335 23.3839C33.1354 21.8295 31.0341 19.9899 28.2325 19.1172C28.3069 19.0112 28.3797 18.9038 28.4487 18.7935C31.5125 18.5967 33.8744 17.7674 35.5001 16.3234C37.126 17.7674 39.4877 18.5967 42.5515 18.7935C44.2535 21.5122 47.5848 22.8906 52.4546 22.8906H58.6381V29.1127C58.6381 30.8877 60.0793 32.3318 61.8509 32.3318C61.9913 32.3318 62.1292 32.3217 62.2647 32.3042V34.1452L61.0424 33.9108C61.0212 33.9066 60.9992 33.9069 60.978 33.9116C60.5827 33.9992 56.2876 34.9517 51.3819 36.0768V34.9452C51.3841 34.9444 51.3863 34.944 51.3885 34.9432C51.4692 34.9078 51.506 34.8136 51.4707 34.7327L51.3819 34.5292V32.7958C52.0837 32.4376 52.6465 32.0302 53.0817 31.6506C54.3157 30.5744 54.8112 29.5097 54.8318 29.4649C54.8511 29.4227 54.8511 29.3739 54.8318 29.3318C54.8112 29.2869 54.3156 28.2221 53.0817 27.146C51.9461 26.1556 49.9448 24.975 46.8599 24.975H44.2481C44.16 24.975 44.0886 25.0465 44.0886 25.1347C44.0886 25.2148 44.1474 25.2811 44.2241 25.2928C42.5827 25.7111 41.4103 26.4726 40.638 27.146C39.404 28.2222 38.9084 29.2869 38.888 29.3318C38.8686 29.3739 38.8686 29.4227 38.8879 29.4649C38.9084 29.5098 39.4041 30.5745 40.638 31.6506C41.217 32.1556 42.0216 32.7097 43.0793 33.1318L42.3806 34.7327C42.3453 34.8136 42.3821 34.9078 42.4628 34.9432C42.4836 34.9523 42.5052 34.9567 42.5266 34.9567C42.588 34.9567 42.6466 34.9209 42.6728 34.8609L43.378 33.2451C44.3159 33.5814 45.4388 33.8099 46.7639 33.8206C45.7522 34.226 44.648 34.6733 43.5433 35.1291C35.8125 38.3189 35.603 38.8044 35.5241 38.9872C35.3325 39.4312 35.2642 40.1043 35.2481 40.7238C35.0796 40.3017 34.8335 39.9438 34.4729 39.7978C32.0554 38.8186 10.8301 34.1115 9.92765 33.9116C9.90644 33.9069 9.88459 33.9066 9.86322 33.9108L8.73528 34.127V32.3042C8.871 32.3217 9.00895 32.3317 9.14922 32.3317ZM65.3681 35.0393C65.3681 35.6358 65.3681 37.7954 65.3682 40.7843C65.0665 40.7625 64.7573 40.745 64.4432 40.7308C64.3374 40.7259 64.2311 40.7215 64.1242 40.7174C62.7369 40.6649 61.253 40.6728 59.7853 40.6811C59.2601 40.684 58.7387 40.6869 58.2267 40.6869C54.1343 40.6869 53.3143 42.9996 53.1604 43.7085C52.8947 44.9323 53.4005 46.1782 54.3368 46.6066C54.7981 46.8177 55.4852 46.9686 56.2924 47.075C53.85 47.6515 53.2826 49.2816 53.1584 49.8538C52.8976 51.0551 53.4042 52.2828 54.3367 52.7096C54.864 52.9509 55.6862 53.1136 56.6456 53.2209C53.9111 53.7238 53.2919 55.5021 53.1603 56.1082C52.8945 57.3321 53.4003 58.5781 54.3367 59.0066C54.8639 59.2479 55.6861 59.4105 56.6455 59.5178C53.911 60.0208 53.2919 61.7991 53.1603 62.4051C52.8945 63.6291 53.4003 64.8751 54.3367 65.3036C54.6892 65.4649 55.1735 65.5909 55.7423 65.6889C57.2825 67.738 59.6579 69.1062 62.2677 69.4686C62.6458 69.5212 63.0286 69.5528 63.4147 69.5621C63.4953 69.564 63.5759 69.5659 63.6566 69.5659C63.6567 69.5659 63.6568 69.5659 63.6571 69.5659C64.2289 69.5659 64.8047 69.517 65.3682 69.4209C65.3682 70.2692 65.3682 70.8541 65.3682 71.1016L39.0463 76.4395V75.9505V41.2955C39.5561 41.1904 41.308 40.7684 44.9165 39.8907L65.0685 35.0925C65.1921 35.0687 65.2936 35.0505 65.3681 35.0393ZM40.8292 29.4208C40.8292 30.5019 41.2551 31.4846 41.9464 32.2116C41.519 31.9519 41.1577 31.6791 40.8592 31.4197C39.8442 30.538 39.3393 29.6453 39.2112 29.3983C39.3813 29.0722 40.2142 27.6186 42.0409 26.5333C41.2938 27.2686 40.8292 28.2911 40.8292 29.4208ZM48.8925 29.4207C48.8923 27.6453 47.7632 25.6981 45.2927 25.4053C45.7805 25.3342 46.302 25.2943 46.8598 25.2943C49.8383 25.2943 51.767 26.4266 52.8605 27.3766C53.8755 28.2583 54.3804 29.1511 54.5084 29.3981C54.3804 29.645 53.8754 30.5379 52.8605 31.4196C52.4749 31.7546 51.9848 32.1123 51.3819 32.435V32.2334C51.3819 32.1807 51.3559 32.1314 51.3126 32.1016C51.2693 32.0719 51.214 32.0654 51.165 32.0843C51.1414 32.0933 49.6587 32.6663 47.6263 33.4759C47.3788 33.4928 47.1236 33.502 46.8598 33.502C46.3653 33.502 45.9003 33.4703 45.4627 33.4138C47.8139 33.0555 48.8926 31.156 48.8925 29.4207ZM51.063 32.4665V36.15C44.8446 37.578 37.7683 39.2567 36.4327 39.7977C35.9987 39.9736 35.7303 40.4561 35.5639 40.9888C35.5662 40.3353 35.6185 39.5734 35.8168 39.1141C35.8962 38.9454 36.8216 38.2474 43.6821 35.4173C46.9471 34.0704 50.2062 32.7992 51.063 32.4665ZM65.0623 34.7655L39.0448 40.9606C39.0367 40.8839 38.9752 40.8238 38.8978 40.8185C38.92 40.7862 38.9554 40.7613 39.0025 40.7502L64.7321 34.7036L65.0623 34.7655ZM38.9295 40.439C38.7261 40.4871 38.5798 40.6449 38.5566 40.8412C38.5399 40.9816 38.591 41.1168 38.6902 41.2149C38.5006 41.788 37.5641 42.0484 35.6671 42.0662C35.7636 41.2817 36.0077 40.3145 36.5524 40.094C38.9028 39.1419 60.055 34.4436 61.0148 34.2307L63.4004 34.6881L38.9295 40.439ZM9.89105 34.2307C10.8509 34.4437 32.003 39.142 34.3534 40.094C34.898 40.3145 35.1422 41.2817 35.2386 42.0662C33.3416 42.0484 32.4051 41.788 32.2155 41.2149C32.3149 41.1168 32.3657 40.9816 32.3492 40.8412C32.326 40.645 32.1796 40.4871 31.9761 40.439L7.50544 34.6882L9.89105 34.2307ZM31.903 40.7501C31.9765 40.7675 32.0249 40.8156 32.0324 40.8788C32.0351 40.901 32.0344 40.9499 31.9892 40.991L5.84333 34.7655L6.17369 34.7036L31.903 40.7501ZM5.83192 35.0913L25.9366 39.8784C29.5799 40.7648 31.3466 41.1903 31.8592 41.2957V76.4397L5.53736 71.1017C5.53736 70.8542 5.53736 70.2694 5.53736 69.4211C6.10097 69.5172 6.67686 69.5661 7.249 69.5661C7.4395 69.5661 7.6292 69.5599 7.81819 69.5492C8.17056 69.5293 8.51998 69.4912 8.86486 69.4354C11.3774 69.0282 13.6539 67.6869 15.1498 65.7071C15.7652 65.6067 16.2888 65.4751 16.6633 65.3037C17.5997 64.8753 18.1054 63.6292 17.8396 62.4054C17.708 61.7993 17.0888 60.0209 14.3543 59.518C15.3138 59.4106 16.136 59.248 16.6633 59.0068C17.5997 58.5783 18.1054 57.3322 17.8396 56.1084C17.708 55.5023 17.0888 53.7239 14.3541 53.221C15.3137 53.1136 16.136 52.951 16.6633 52.7098C17.5958 52.283 18.1024 51.0552 17.8416 49.854C17.7174 49.2818 17.15 47.6518 14.7078 47.0751C15.5148 46.9687 16.202 46.8178 16.6632 46.6068C17.5996 46.1784 18.1053 44.9324 17.8396 43.7086C17.6857 42.9998 16.8656 40.687 12.7732 40.687C12.2613 40.687 11.7398 40.6841 11.2147 40.6813C9.85142 40.6735 8.47405 40.666 7.17324 40.707C7.06631 40.7103 6.96017 40.7143 6.85428 40.7183C6.40366 40.7357 5.96341 40.7594 5.53736 40.7917C5.53736 37.7988 5.53744 35.6362 5.53744 35.0392C5.61088 35.0501 5.71064 35.0679 5.83192 35.0913Z" fill="#161616"/>
</g>
<defs>
<clipPath id="clip0_239_315">
<rect width="71" height="78" fill="white"/>
</clipPath>
</defs>
</svg>
