<svg width="71" height="78" viewBox="0 0 71 78" fill="none" xmlns="http://www.w3.org/2000/svg">
<g clipPath="url(#clip0_239_291)">
<path d="M5.31059 35.2566C5.31059 35.2371 5.32036 35.2209 5.33398 35.2086L5.32398 35.2062C5.24713 35.1878 5.25012 35.0869 5.32792 35.0723L6.10008 34.9269L6.65522 35.0578L9.54212 34.5022C10.2635 31.5874 9.97734 28.5608 9.97734 28.5608C11.855 26.2002 12.1332 22.4814 12.1332 22.4814C14.4281 20.6206 14.6135 15.9465 14.6135 15.9465C29.523 15.9465 33.8826 10.5668 34.8323 9.00967C35.7819 10.5667 40.1414 15.9465 55.0509 15.9465C55.0509 15.9465 55.2363 20.6206 57.5313 22.4814C57.5313 22.4814 57.8095 26.2002 59.6871 28.5608C59.6871 28.5608 59.402 31.5773 60.1188 34.4876C60.2043 34.4685 60.2496 34.4585 60.2496 34.4585L63.364 35.0578L63.9191 34.9269L64.6913 35.0723C64.7691 35.087 64.7721 35.1878 64.6952 35.2062L64.6852 35.2086C64.6989 35.2209 64.7086 35.2371 64.7086 35.2566V38.3281L64.986 38.2272L67.0418 37.4789L67.1095 37.4542C66.1899 35.563 68.5204 34.8933 67.0963 31.3204C66.4539 29.709 65.4644 28.8621 64.5715 28.4179C64.8791 27.5465 65.1637 26.4718 64.4175 24.5998C63.8278 23.1201 62.9453 22.2854 62.1134 21.8147C62.3833 20.9833 62.5598 19.9391 61.8795 18.2322C61.2372 16.6207 60.2476 15.7739 59.3546 15.3296C59.6623 14.4585 59.9468 13.3835 59.2008 11.5116C58.3624 9.40828 56.9325 8.60765 55.8979 8.30454C54.5316 6.08897 48.9866 -1.0356 34.8323 0.330721C20.6781 -1.0356 15.1331 6.08897 13.7667 8.30454C12.7321 8.60757 11.3023 9.40828 10.4638 11.5116C9.71772 13.3835 10.0022 14.4585 10.31 15.3296C9.41692 15.7739 8.42735 16.6208 7.78504 18.2322C7.10469 19.9392 7.28139 20.9833 7.55109 21.8147C6.71932 22.2854 5.83684 23.1201 5.24705 24.5998C4.50087 26.4718 4.78537 27.5465 5.0931 28.4179C4.20015 28.8621 3.21058 29.709 2.56826 31.3204C1.1441 34.8933 3.4746 35.563 2.55503 37.4542C2.55503 37.4542 2.58275 37.4685 2.62275 37.4789L5.31075 38.4573V35.2566H5.31059Z" fill="#FF6161"/>
<path d="M60.2495 34.4584C60.2495 34.4584 60.2043 34.4685 60.1187 34.4875C59.3443 34.6601 55.2197 35.5809 50.582 36.6496V32.6404C50.582 32.6404 35.6396 38.4317 35.2246 39.3969C34.8096 40.3621 35.0096 42.5452 35.0096 42.5452C36.773 42.5452 38.2216 42.3706 38.385 41.4804C38.1404 41.3403 38.1935 40.995 38.4789 40.9273L63.3639 35.0578L60.2495 34.4584Z" fill="#FFFAEE"/>
<path d="M31.6185 41.4899L31.6184 41.4899V42.5382H31.6185V41.4899Z" fill="#FFFAEE"/>
<path d="M33.9829 40.2844C31.5803 39.3077 9.76955 34.4585 9.76955 34.4585L9.54206 34.5023L6.65515 35.0578L31.5402 40.9273C31.8256 40.995 31.8788 41.3403 31.6342 41.4804C31.7964 42.3645 33.226 42.5427 34.9726 42.5452C34.8979 41.7765 34.6715 40.5643 33.9829 40.2844Z" fill="#FFFAEE"/>
<path d="M64.6912 35.0723L63.9191 34.9268L63.3639 35.0577L38.4788 40.9272C38.1935 40.9949 38.1403 41.3403 38.385 41.4804C38.2216 42.3706 36.773 42.5452 35.0096 42.5452C34.9973 42.5452 34.985 42.545 34.9728 42.545C33.2261 42.5426 31.7966 42.3643 31.6343 41.4803C31.8789 41.3401 31.8258 40.9949 31.5404 40.9272L6.65524 35.0578L6.1001 34.9269L5.32794 35.0724C5.25014 35.087 5.24715 35.1878 5.324 35.2063L5.334 35.2086C5.32038 35.2209 5.31061 35.2371 5.31061 35.2566V38.4573V41.2947C5.78 41.256 6.2679 41.2283 6.76871 41.2089C6.87313 41.2048 6.97817 41.2011 7.08369 41.1977C8.8718 41.1405 10.8029 41.1771 12.6136 41.1771C18.2557 41.1771 18.3154 45.8575 16.3895 46.7419C15.7956 47.0146 14.8013 47.1837 13.6548 47.2847C18.2544 47.8256 18.1887 51.9644 16.3895 52.7905C15.5636 53.1699 13.9633 53.3487 12.2561 53.4224L12.6136 53.4669C18.2557 53.4669 18.3154 58.1472 16.3895 59.0316C15.6163 59.3866 14.1642 59.566 12.5812 59.6479L12.6136 59.7078C18.2557 59.7078 18.3154 64.3881 16.3895 65.2726C14.6455 66.0734 9.44923 65.9805 7.08361 65.8915C6.97211 65.8872 6.86691 65.8831 6.76863 65.879C6.21916 65.8562 5.88647 65.8366 5.88647 65.8366C5.69425 65.8366 5.50204 65.832 5.31061 65.8214V71.2926L31.6184 76.6471V52.2525V42.5382V41.49L31.6184 41.4899V42.5381V52.2525V75.9689C31.6184 77.0111 33.1367 77.8559 35.0096 77.8559C36.8825 77.8559 38.4008 77.0111 38.4008 75.9689V76.6472L64.7085 71.2927V65.8262C64.548 65.8335 64.387 65.8367 64.2259 65.8367C64.2259 65.8367 64.0091 65.8495 63.6375 65.8664C63.5422 65.8708 63.4374 65.8753 63.3226 65.8801C61.1244 65.9709 55.5432 66.1086 53.7229 65.2728C51.797 64.3883 51.8567 59.708 57.4988 59.708L57.5312 59.6481C55.9481 59.5662 54.4961 59.3868 53.7229 59.0317C51.797 58.1473 51.8567 53.467 57.4988 53.467L57.8563 53.4225C56.1491 53.3488 54.5488 53.1701 53.7229 52.7907C51.9237 51.9645 51.858 47.8257 56.4576 47.2848C55.311 47.1839 54.3167 47.0149 53.7229 46.7421C51.797 45.8577 51.8567 41.1773 57.4988 41.1773C59.4091 41.1773 61.4535 41.1364 63.3225 41.2082C63.428 41.2123 63.5331 41.2166 63.6375 41.2214C64.0029 41.2381 64.3606 41.2597 64.7085 41.2872V38.3283V35.2568C64.7085 35.2373 64.6989 35.2211 64.6852 35.2088L64.6952 35.2064C64.772 35.1877 64.7691 35.0869 64.6912 35.0723Z" fill="#FFE461"/>
<path d="M63.6375 38.285C63.6375 38.0841 63.6374 37.9798 63.6323 37.9205L63.6369 37.9201C63.6358 37.9046 63.6317 37.8862 63.6234 37.8676C63.6184 37.8513 63.6113 37.8415 63.6017 37.8312C63.5739 37.7963 63.5277 37.7679 63.4544 37.7679C62.9455 37.7679 56.0138 39.4522 47.6898 41.4871C44.0124 42.386 40.8314 43.1636 40.5797 43.2005C40.5548 43.2005 40.5297 43.2065 40.5067 43.2186C40.4549 43.246 40.4225 43.2999 40.4225 43.3588V73.9621C40.4225 74.0096 40.4437 74.0546 40.4803 74.0847C40.5086 74.1081 40.544 74.1205 40.58 74.1205C40.5904 74.1205 40.6009 74.1195 40.6112 74.1173L63.5114 69.4565C63.5848 69.4416 63.6377 69.3766 63.6377 69.3013V65.8664C63.5423 65.8708 63.4375 65.8753 63.3227 65.8801C63.3227 67.5931 63.3227 68.7887 63.3227 69.1717L40.7373 73.7685V43.4908C41.2803 43.3778 43.2673 42.8941 47.7641 41.7949C53.5176 40.3883 62.0713 38.2974 63.3224 38.0998C63.3224 38.5046 63.3224 39.6228 63.3224 41.2082C63.428 41.2122 63.5331 41.2165 63.6374 41.2213L63.6375 38.285Z" fill="#EFC059"/>
<path d="M7.08369 38.0997C8.33225 38.2969 16.8776 40.3859 22.6255 41.7909C27.1331 42.8928 29.1247 43.3777 29.6687 43.4909V73.7685L7.08353 69.1717C7.08353 68.7896 7.08353 67.5985 7.08353 65.8917C6.97203 65.8874 6.86683 65.8833 6.76855 65.8792V69.3013C6.76855 69.3766 6.82131 69.4415 6.89478 69.4565L29.795 74.1173C29.8054 74.1195 29.8158 74.1205 29.8262 74.1205C29.8623 74.1205 29.8976 74.1081 29.9259 74.0847C29.9625 74.0546 29.9837 74.0096 29.9837 73.9621V43.3588C29.9837 43.3 29.9513 43.246 29.8995 43.2186C29.8765 43.2065 29.8515 43.2005 29.8265 43.2005C29.5744 43.1636 26.386 42.3842 22.7 41.4831C14.3848 39.4505 7.46048 37.7679 6.95187 37.7679C6.87864 37.7679 6.83234 37.7962 6.80462 37.8312C6.79493 37.8415 6.78793 37.8513 6.78281 37.8676C6.77462 37.8862 6.77052 37.9046 6.76926 37.9201L6.77391 37.9205C6.76879 37.9798 6.76879 38.0841 6.76879 38.285V41.209C6.87321 41.2049 6.97825 41.2012 7.08377 41.1978C7.08361 39.6176 7.08361 38.5032 7.08369 38.0997Z" fill="#EFC059"/>
<path d="M35.2246 39.397C35.6397 38.4318 50.582 32.6405 50.582 32.6405V36.6497C55.2197 35.581 59.3443 34.6602 60.1188 34.4876C59.402 31.5773 59.6871 28.5608 59.6871 28.5608C57.8095 26.2002 57.5313 22.4814 57.5313 22.4814C55.2363 20.6207 55.0509 15.9465 55.0509 15.9465C40.1414 15.9465 35.7819 10.5669 34.8323 9.0097C33.8826 10.5668 29.523 15.9465 14.6135 15.9465C14.6135 15.9465 14.4281 20.6207 12.1332 22.4814C12.1332 22.4814 11.855 26.2003 9.97733 28.5608C9.97733 28.5608 10.2634 31.5875 9.54211 34.5022L9.76961 34.4585C9.76961 34.4585 31.5804 39.3077 33.9829 40.2843C34.6715 40.5642 34.898 41.7765 34.9727 42.5451C34.985 42.5451 34.9971 42.5453 35.0095 42.5453C35.0095 42.5453 34.8095 40.3622 35.2246 39.397Z" fill="#F9F9F9"/>
<path d="M64.7085 41.2871C64.3606 41.2596 64.0029 41.238 63.6375 41.2213C63.5331 41.2165 63.428 41.2122 63.3225 41.2082C61.4535 41.1364 59.4091 41.1772 57.4987 41.1772C51.8567 41.1772 51.797 45.8576 53.7229 46.742C54.3168 47.0147 55.3111 47.1838 56.4576 47.2847C51.858 47.8256 51.9237 51.9645 53.7229 52.7906C54.5488 53.17 56.1492 53.3488 57.8563 53.4224L57.4987 53.4669C51.8567 53.4669 51.797 58.1472 53.7229 59.0316C54.4961 59.3867 55.9481 59.5661 57.5312 59.648L57.4987 59.7079C51.8567 59.7079 51.797 64.3882 53.7229 65.2727C55.5431 66.1086 61.1243 65.9708 63.3226 65.88C63.4374 65.8752 63.5422 65.8707 63.6375 65.8663C64.009 65.8494 64.2259 65.8366 64.2259 65.8366C64.3869 65.8366 64.548 65.8334 64.7085 65.8261C67.4034 65.7038 69.9548 64.3772 69.9548 55.8603V44.0629C69.9548 42.197 67.6989 41.5231 64.7085 41.2871Z" fill="#F9F9F9"/>
<path d="M6.76864 65.8792C6.86683 65.8833 6.97211 65.8874 7.08362 65.8917C9.44924 65.9807 14.6455 66.0736 16.3895 65.2728C18.3154 64.3883 18.2557 59.708 12.6136 59.708L12.5812 59.6481C14.1643 59.5661 15.6163 59.3868 16.3895 59.0317C18.3154 58.1473 18.2557 53.467 12.6136 53.467L12.2561 53.4225C13.9633 53.3488 15.5636 53.1701 16.3895 52.7907C18.1887 51.9645 18.2544 47.8257 13.6548 47.2848C14.8013 47.1839 15.7956 47.0149 16.3895 46.7421C18.3154 45.8577 18.2557 41.1773 12.6136 41.1773C10.8029 41.1773 8.87181 41.1406 7.08369 41.1979C6.97826 41.2013 6.87321 41.2049 6.76872 41.209C6.26791 41.2284 5.78001 41.2561 5.31062 41.2949C2.36679 41.5374 0.157471 42.2165 0.157471 44.0629V55.8603C0.157471 64.2789 2.65042 65.6723 5.31062 65.8214C5.50197 65.8322 5.69418 65.8366 5.88647 65.8366C5.88647 65.8366 6.21909 65.8564 6.76864 65.8792Z" fill="#F9F9F9"/>
<path d="M46.2047 24.767C40.4017 24.767 38.4757 28.9926 38.4757 28.9926C38.4757 28.9926 40.4017 33.2183 46.2047 33.2183C52.0077 33.2183 53.9337 28.9926 53.9337 28.9926C53.9337 28.9926 52.0077 24.767 46.2047 24.767Z" fill="white"/>
<path d="M23.8384 24.767C18.0354 24.767 16.1094 28.9926 16.1094 28.9926C16.1094 28.9926 18.0354 33.2183 23.8384 33.2183C29.6414 33.2183 31.5675 28.9926 31.5675 28.9926C31.5675 28.9926 29.6414 24.767 23.8384 24.767Z" fill="white"/>
<path d="M38.405 28.1986C38.4828 28.238 38.5774 28.2062 38.6163 28.1279C39.8821 25.5874 42.7875 24.0075 46.1986 24.0045C46.202 24.0045 46.2049 24.0045 46.2083 24.0045C49.6142 24.0045 52.52 25.584 53.7929 28.1282C53.8207 28.1835 53.8762 28.2154 53.9338 28.2154C53.9576 28.2154 53.9818 28.21 54.0044 28.1985C54.0821 28.1592 54.1134 28.064 54.0744 27.9858C52.7474 25.334 49.7341 23.6877 46.2083 23.6877C46.205 23.6877 46.2015 23.6877 46.1983 23.6877C42.6671 23.6908 39.6541 25.3379 38.3347 27.9861C38.2958 28.0642 38.3273 28.1594 38.405 28.1986Z" fill="#161616"/>
<path d="M29.9824 26.7603C28.8609 25.7788 26.8847 24.6086 23.8413 24.6086C23.7742 24.6073 23.7072 24.6067 23.641 24.6067C18.4443 24.6067 16.0625 28.5124 15.9563 28.9557C15.9515 28.9757 15.9506 28.9966 15.9538 29.0169C15.9587 29.0491 17.0506 31.4152 19.995 32.6477L19.2852 34.2796C19.2504 34.3598 19.2867 34.4531 19.3664 34.4882C19.3869 34.4972 19.4083 34.5016 19.4294 34.5016C19.4901 34.5016 19.5479 34.4661 19.5737 34.4066L20.2879 32.7644C21.2175 33.1146 22.3196 33.35 23.6158 33.3742V35.1395C23.6158 35.2269 23.6864 35.2979 23.7733 35.2979C23.8603 35.2979 23.9308 35.2269 23.9308 35.1395V33.3757C25.2403 33.3654 26.3499 33.1388 27.2765 32.8053L27.973 34.4067C27.9989 34.4662 28.0567 34.5017 28.1173 34.5017C28.1384 34.5017 28.1598 34.4973 28.1803 34.4883C28.26 34.4533 28.2964 34.3599 28.2615 34.2797L27.5715 32.693C28.6161 32.2747 29.4105 31.7255 29.9823 31.225C31.2008 30.1584 31.6902 29.1031 31.7105 29.0587C31.7295 29.0169 31.7295 28.9686 31.7105 28.9268C31.6903 28.8822 31.2009 27.8269 29.9824 26.7603ZM16.2791 28.9806C16.5151 28.3924 18.8837 24.9234 23.641 24.9234C23.7051 24.9234 23.7701 24.9241 23.8382 24.9253C24.3897 24.9253 24.9048 24.9648 25.3848 25.0352C22.9475 25.3234 21.8313 27.2544 21.8311 29.0151C21.831 30.735 22.8964 32.6176 25.2182 32.9726C24.786 33.0286 24.3267 33.06 23.8383 33.06C20.8977 33.06 18.9934 31.9382 17.9136 30.9971C16.8931 30.1075 16.3946 29.2066 16.2791 28.9806ZM29.764 30.9962C29.4692 31.2532 29.1124 31.5236 28.6903 31.7811C29.3731 31.0606 29.7936 30.0867 29.7936 29.0152C29.7936 27.8881 29.3286 26.8687 28.5813 26.1389C29.0513 26.4156 29.4441 26.7102 29.764 26.9891C30.7663 27.863 31.2649 28.7478 31.3914 28.9926C31.2649 29.2374 30.7663 30.1222 29.764 30.9962Z" fill="#161616"/>
<path d="M16.0387 28.1986C16.1165 28.238 16.2111 28.2062 16.2501 28.1279C17.5158 25.5874 20.4212 24.0074 23.8325 24.0045C23.8358 24.0045 23.8388 24.0045 23.8421 24.0045C27.2478 24.0045 30.1538 25.5841 31.4268 28.1282C31.4545 28.1835 31.5099 28.2154 31.5676 28.2154C31.5913 28.2154 31.6155 28.21 31.6382 28.1985C31.7159 28.1592 31.7472 28.064 31.7081 27.9858C30.3812 25.3341 27.3678 23.6877 23.8421 23.6877C23.8389 23.6877 23.8355 23.6877 23.8322 23.6877C20.3011 23.6908 17.2879 25.3379 15.9686 27.9861C15.9295 28.0642 15.9609 28.1594 16.0387 28.1986Z" fill="#161616"/>
<path d="M18.8269 20.049C22.5681 18.0666 25.8011 18.5079 27.8545 19.2272C30.5486 20.1709 32.3371 21.952 33.05 23.1905C33.9742 24.7959 34.8233 27.4521 34.1746 29.6544C33.8132 30.8817 33.0237 31.8138 31.8282 32.4247C31.751 32.4642 31.72 32.559 31.7589 32.6369L34.3325 37.7975C34.3602 37.8529 34.4157 37.8849 34.4734 37.8849C34.4971 37.8849 34.5212 37.8796 34.5439 37.8682C34.6216 37.829 34.6531 37.7338 34.614 37.6555L32.1097 32.6339C33.3081 31.9815 34.1039 31.0101 34.4768 29.7444C35.1538 27.4457 34.2783 24.6916 33.3228 23.0319C31.6275 20.0869 25.592 16.1064 18.6803 19.7689C18.6033 19.8096 18.5738 19.9054 18.6144 19.9828C18.6548 20.06 18.7499 20.0896 18.8269 20.049Z" fill="#161616"/>
<path d="M69.4965 42.5716C68.632 41.707 66.9304 41.3151 64.8658 41.1409V38.4397L67.0859 37.6315C67.1236 37.6217 67.1567 37.6083 67.1822 37.595C67.1843 37.5939 67.186 37.5924 67.188 37.5912C67.1918 37.5891 67.1954 37.5866 67.199 37.584C67.2043 37.5804 67.2093 37.5765 67.214 37.5723C67.217 37.5696 67.2199 37.5669 67.2226 37.5639C67.2273 37.559 67.2314 37.554 67.2354 37.5487C67.2377 37.5456 67.24 37.5425 67.242 37.5393C67.2458 37.5334 67.2489 37.5272 67.2518 37.5208C67.2529 37.5185 67.2544 37.5164 67.2555 37.514C67.2558 37.5131 67.2559 37.5121 67.2562 37.5112C67.2592 37.5036 67.2612 37.4958 67.2629 37.4878C67.2634 37.4855 67.2643 37.4832 67.2646 37.4809C67.2681 37.4603 67.2674 37.439 67.2625 37.4179C67.2617 37.4147 67.2604 37.4117 67.2594 37.4085C67.2577 37.4026 67.2562 37.3968 67.2537 37.391C67.2532 37.3899 67.2525 37.389 67.252 37.3878C67.2516 37.3869 67.2514 37.3859 67.251 37.385C66.8809 36.6239 67.0768 36.0826 67.3249 35.3972C67.657 34.48 68.0701 33.3386 67.2424 31.2618C66.7057 29.9154 65.8756 28.9347 64.7739 28.3449C65.1643 27.362 65.1166 26.0241 64.6386 24.7275C64.1484 23.3981 63.3039 22.3187 62.3084 21.7426C63.0458 19.6169 61.6254 16.2729 59.55 15.2468C59.8485 14.3623 60.0649 13.2548 59.3468 11.4531C58.5006 9.33012 57.0674 8.49576 56.0026 8.17C55.4192 7.23167 54.1453 5.50981 51.8603 3.87229C49.9286 2.48792 47.6738 1.45837 45.1585 0.812231C42.0852 0.022768 38.6116 -0.191504 34.8321 0.171713C31.0526 -0.191504 27.5789 0.022768 24.5056 0.812231C21.9904 1.45829 19.7355 2.48784 17.8038 3.87229C15.5188 5.50981 14.2449 7.23167 13.6616 8.17C12.5968 8.49568 11.1636 9.33004 10.3173 11.4531C9.59918 13.2547 9.81565 14.3622 10.1142 15.2468C8.03872 16.2729 6.61834 19.6169 7.35569 21.7426C6.36029 22.3187 5.51569 23.3981 5.02559 24.7275C4.54753 26.0241 4.49981 27.362 4.8903 28.3449C3.7886 28.9347 2.95848 29.9154 2.42177 31.2618C1.59401 33.3386 2.00726 34.48 2.33924 35.3971C2.58736 36.0825 2.78336 36.6239 2.41318 37.385C2.41271 37.386 2.41255 37.3869 2.41208 37.388C2.41161 37.389 2.4109 37.3898 2.41043 37.3909C2.40806 37.3963 2.40673 37.402 2.40499 37.4075C2.40389 37.411 2.40239 37.4144 2.40161 37.418C2.39917 37.428 2.39775 37.4383 2.39735 37.4485C2.39735 37.4486 2.39728 37.4489 2.39728 37.4491C2.39696 37.4598 2.39767 37.4703 2.39948 37.4806C2.39987 37.4833 2.4009 37.4859 2.40137 37.4885C2.40302 37.4961 2.40499 37.5037 2.40775 37.511C2.40814 37.5119 2.40822 37.5129 2.40861 37.514C2.40964 37.5165 2.41129 37.5187 2.41239 37.5212C2.41523 37.5273 2.4183 37.5333 2.42192 37.5391C2.42413 37.5425 2.42649 37.5458 2.42885 37.549C2.43271 37.5541 2.43681 37.5591 2.44121 37.5638C2.44413 37.5669 2.44704 37.5698 2.45019 37.5726C2.45484 37.5767 2.45972 37.5805 2.46492 37.5841C2.46862 37.5867 2.47232 37.5892 2.47626 37.5915C2.47822 37.5927 2.47988 37.5941 2.48193 37.5952C2.50728 37.6085 2.54035 37.6217 2.57791 37.6316L5.15307 38.569V41.1489C3.13038 41.327 1.46708 41.7203 0.61554 42.5718C0.207175 42.9803 0 43.4821 0 44.0632V55.8606C0 59.9993 0.59672 62.7701 1.82426 64.3312C2.77438 65.5395 3.99215 65.8863 5.15315 65.9709V71.2929C5.15315 71.3682 5.20591 71.4332 5.27946 71.4481L31.5872 76.8026C31.5975 76.8048 31.608 76.8058 31.6184 76.8058C31.6545 76.8058 31.6897 76.7934 31.7181 76.77C31.7224 76.7664 31.7258 76.7621 31.7296 76.7581C32.3061 77.6063 33.7073 78.0004 35.0065 78.0004C36.3097 78.0004 37.714 77.6066 38.2904 76.7591C38.294 76.7626 38.297 76.7668 38.3011 76.7701C38.3295 76.7934 38.3648 76.8059 38.4008 76.8059C38.4112 76.8059 38.4217 76.8048 38.4321 76.8027L64.7398 71.4482C64.8133 71.4333 64.8661 71.3683 64.8661 71.293L64.8661 65.9774C66.0548 65.9044 67.3125 65.5719 68.2882 64.3312C69.5156 62.7701 70.1124 59.9994 70.1124 55.8607V44.0632C70.1124 43.4821 69.9051 42.9803 69.4965 42.5716ZM69.7974 55.8607C69.7974 64.9201 66.9215 65.6787 64.2259 65.6787C64.2228 65.6787 64.2197 65.6788 64.2167 65.679C64.1349 65.6839 56.0125 66.1504 53.7883 65.129C52.9952 64.7648 52.5719 63.6826 52.8035 62.6118C52.9428 61.9678 53.6931 59.8666 57.4987 59.8666C57.5455 59.8666 57.587 59.8457 57.6158 59.8132C58.4364 59.854 59.2873 59.8691 60.0951 59.8691C62.2378 59.8691 64.0767 59.7635 64.235 59.7541C64.3219 59.749 64.3882 59.674 64.383 59.5868C64.3779 59.4995 64.3028 59.4307 64.2166 59.438C64.1348 59.4427 56.0124 59.9095 53.7882 58.888C52.9951 58.5237 52.5718 57.4416 52.8034 56.3709C52.9428 55.7269 53.693 53.6256 57.4986 53.6256C57.5454 53.6256 57.5869 53.6047 57.6157 53.5721C58.4364 53.6131 59.2874 53.6282 60.0953 53.6282C62.2381 53.6282 64.0766 53.5226 64.2349 53.5131C64.3219 53.5081 64.3881 53.4331 64.383 53.3458C64.3778 53.2586 64.3027 53.1911 64.2165 53.197C64.1348 53.2018 56.0123 53.6684 53.7881 52.647C53.0024 52.2862 52.5775 51.2402 52.7994 50.214C52.935 49.5874 53.6744 47.543 57.4986 47.543C57.5269 47.543 57.5532 47.5348 57.5763 47.5215C60.5831 47.6745 64.0159 47.4775 64.2349 47.4644C64.3219 47.4594 64.3881 47.3844 64.383 47.2971C64.3778 47.2099 64.3027 47.1411 64.2165 47.1483C64.1347 47.153 56.0125 47.6197 53.7881 46.5983C52.995 46.2341 52.5717 45.152 52.8033 44.0812C52.9427 43.4372 53.6929 41.3359 57.4986 41.3359C58.0046 41.3359 58.5202 41.3331 59.0393 41.3301C63.3263 41.3069 67.7595 41.2816 69.2742 42.7964C69.6261 43.1482 69.7972 43.5627 69.7972 44.0633V55.8607H69.7974ZM31.776 75.9641V42.0623C32.3521 42.6109 33.643 42.704 35.0096 42.704C36.3762 42.704 37.6672 42.6109 38.2433 42.0623V75.9644C38.169 77.1456 36.5144 77.6836 35.0066 77.6836C33.5043 77.6835 31.854 77.1455 31.776 75.9641ZM0.314975 44.0632C0.314975 43.5625 0.486007 43.1481 0.837913 42.7962C2.35263 41.2814 6.78606 41.3064 11.0729 41.33C11.592 41.3329 12.1076 41.3358 12.6137 41.3358C16.4193 41.3358 17.1696 43.4371 17.3089 44.0811C17.5405 45.1519 17.1172 46.2339 16.3241 46.5982C14.0999 47.6195 5.97752 47.1529 5.8957 47.1482C5.80901 47.1409 5.73436 47.2096 5.72924 47.297C5.72412 47.3843 5.79035 47.4592 5.8772 47.4643C6.09926 47.4776 9.62257 47.6798 12.6577 47.5151C16.4427 47.5279 17.1791 49.5678 17.3147 50.1945C17.5388 51.2304 17.1129 52.2846 16.3241 52.6469C14.0998 53.6682 5.97752 53.2016 5.8957 53.1969C5.80893 53.1909 5.73436 53.2583 5.72924 53.3457C5.72412 53.433 5.79035 53.5079 5.8772 53.513C6.03563 53.5224 7.87375 53.628 10.0168 53.628C10.8247 53.628 11.6757 53.6128 12.4964 53.572C12.5252 53.6045 12.5668 53.6254 12.6135 53.6254C16.4191 53.6254 17.1695 55.7267 17.3088 56.3707C17.5403 57.4415 17.117 58.5236 16.3239 58.8878C14.0997 59.9091 5.97728 59.4425 5.89555 59.4378C5.80885 59.4306 5.7342 59.4993 5.72908 59.5866C5.72396 59.674 5.79019 59.7489 5.87704 59.7539C6.03548 59.7634 7.87391 59.869 10.017 59.869C10.8248 59.869 11.6757 59.8539 12.4962 59.8129C12.5251 59.8456 12.5667 59.8665 12.6134 59.8665C16.419 59.8665 17.1693 61.9677 17.3087 62.6117C17.5403 63.6825 17.1169 64.7646 16.3239 65.1289C14.0997 66.1503 5.97736 65.6837 5.89547 65.6789C5.8924 65.6786 5.88933 65.6786 5.88626 65.6786C3.19078 65.6787 0.314975 64.9201 0.314975 55.8607V44.0632ZM5.16292 28.5602C5.2393 28.5222 5.27174 28.4299 5.23623 28.3521C4.33784 26.3847 5.5879 23.0367 7.62468 21.9551C7.69602 21.9172 7.72736 21.8314 7.69728 21.7561C7.32065 20.8131 7.42247 19.4836 7.96966 18.1998C8.51701 16.9157 9.41547 15.8971 10.3732 15.475C10.4488 15.4417 10.486 15.3552 10.4584 15.277C10.1432 14.3848 9.89534 13.3638 10.6099 11.5709C11.3223 9.78353 12.4678 8.96556 13.4139 8.59189C13.3222 8.75865 13.2743 8.86056 13.2653 8.8802C13.2288 8.95954 13.2632 9.05353 13.342 9.09035C13.4212 9.12725 13.5146 9.09257 13.5511 9.01323C13.5629 8.98773 14.7678 6.43144 18.0031 4.11855C20.9223 2.0315 26.1267 -0.268945 34.4508 0.453608V8.59221C34.4508 8.61287 34.4548 8.63338 34.4626 8.65254C34.4705 8.67171 34.5243 8.79943 34.646 9.00871C34.2301 9.66309 33.2585 10.8995 31.2885 12.1351C28.6312 13.8017 23.5812 15.7884 14.6135 15.7884C14.5289 15.7884 14.4595 15.8555 14.4561 15.9404C14.4543 15.9865 14.2479 20.5635 12.0343 22.3584C12.0004 22.3859 11.9794 22.4261 11.9761 22.4697C11.9733 22.5065 11.6789 26.1683 9.85423 28.4622C9.82872 28.4943 9.81659 28.5351 9.82045 28.5761C9.82494 28.6237 10.0824 31.5401 9.40618 34.3675L6.6585 34.8962L6.13587 34.7729C6.11461 34.7679 6.09249 34.7675 6.07091 34.7714L5.26434 34.9233V34.9235C5.20426 34.9374 5.1704 34.9718 5.15268 35.0082C5.12677 35.044 5.11142 35.0874 5.11024 35.1343C5.1089 35.1879 5.12638 35.238 5.1574 35.2778C5.15307 35.3516 5.15307 35.4684 5.15307 35.6615V38.2319L3.01723 37.4545C3.13668 37.2282 3.09739 36.8145 2.8984 36.1758C2.8836 36.1282 2.84824 36.0933 2.80548 36.0764L2.85178 35.9578C2.7954 35.733 2.71627 35.5128 2.63516 35.2888C2.30515 34.3772 1.93111 33.3441 2.71406 31.3797C3.24267 30.0541 4.06649 29.1056 5.16292 28.5602ZM56.1134 9.01331C56.1501 9.09265 56.2437 9.12725 56.3225 9.09043C56.4013 9.05361 56.4357 8.95962 56.3992 8.88028C56.3903 8.86064 56.3424 8.75881 56.2506 8.59197C57.1967 8.96564 58.3421 9.78368 59.0545 11.5709C59.7691 13.364 59.5212 14.3849 59.2061 15.2771C59.1785 15.3553 59.2156 15.4418 59.2913 15.4751C60.249 15.8972 61.1475 16.9158 61.6948 18.1999C62.242 19.4837 62.3438 20.8131 61.9672 21.7561C61.9371 21.8314 61.9684 21.9173 62.0398 21.9552C64.0765 23.0368 65.3266 26.3847 64.4282 28.3521C64.3927 28.43 64.4252 28.5222 64.5015 28.5602C65.5979 29.1057 66.4217 30.0542 66.9501 31.3797C67.733 33.3441 67.359 34.3772 67.029 35.2887C66.9479 35.5127 66.8688 35.733 66.8124 35.9578L66.8588 36.0763C66.816 36.0932 66.7806 36.1281 66.7658 36.1758C66.5668 36.8144 66.5275 37.2281 66.6469 37.4544L64.8658 38.1028V35.6615C64.8658 35.472 64.8657 35.3542 64.861 35.2783C64.8924 35.2384 64.9099 35.1883 64.9086 35.1345C64.9074 35.0878 64.8921 35.0445 64.8664 35.0087C64.8451 34.9658 64.805 34.9331 64.7546 34.9235L63.948 34.7715C63.9266 34.7675 63.9044 34.7679 63.883 34.773L63.3604 34.8963L60.2791 34.3034C60.2668 34.301 60.2544 34.3005 60.2421 34.3012C59.5856 31.4947 59.8394 28.6234 59.8438 28.5762C59.8476 28.5352 59.8355 28.4944 59.8099 28.4624C57.9853 26.1684 57.6908 22.5066 57.6881 22.4699C57.6848 22.4263 57.6637 22.386 57.6299 22.3586C55.4178 20.565 55.2099 15.9866 55.2081 15.9405C55.2047 15.8557 55.1352 15.7885 55.0507 15.7885C46.1075 15.7885 41.0627 13.8119 38.4055 12.1539C35.7246 10.481 34.8724 8.78914 34.7656 8.55855V0.494942C43.3518 -0.35193 48.6901 1.99421 51.6615 4.11855C54.8968 6.43144 56.1016 8.98773 56.1134 9.01331ZM63.6375 41.0629C63.5331 41.0581 63.4281 41.0536 63.3225 41.0496C61.9525 40.9975 60.4872 41.0053 59.0378 41.0133C58.5192 41.0163 58.0043 41.0191 57.4988 41.0191C53.4577 41.0191 52.6478 43.3112 52.4958 44.0138C52.2334 45.2268 52.7328 46.4617 53.6575 46.8863C54.1546 47.1147 54.9173 47.272 55.8101 47.3784C53.2033 47.8932 52.6167 49.5695 52.4919 50.1466C52.2349 51.3342 52.7252 52.5069 53.6575 52.935C54.1782 53.1742 54.9901 53.3353 55.9375 53.4416C53.2371 53.9402 52.6257 55.7027 52.4958 56.3034C52.2334 57.5164 52.7328 58.7514 53.6575 59.176C54.1782 59.4151 54.9902 59.5763 55.9377 59.6827C53.2372 60.1811 52.6257 61.9438 52.4958 62.5444C52.2334 63.7574 52.7328 64.9923 53.6575 65.417C54.0056 65.5769 54.4839 65.7018 55.0455 65.7989C56.5665 67.8298 58.9122 69.1858 61.4894 69.545C61.8629 69.597 62.2411 69.6284 62.6223 69.6376C62.7018 69.6395 62.7812 69.6414 62.8608 69.6414C62.8609 69.6414 62.861 69.6414 62.8612 69.6414C63.426 69.6414 63.9945 69.593 64.5512 69.4978C64.5512 70.3382 64.5512 70.9178 64.5512 71.1634L38.5583 76.4538V75.9692V41.6225C39.0627 41.5181 40.7984 41.0985 44.3765 40.225L64.2563 35.4743C64.3778 35.4507 64.4776 35.4328 64.5509 35.4218C64.5509 36.0129 64.551 38.1534 64.5511 41.116C64.253 41.0943 63.9477 41.0769 63.6375 41.0629ZM6.0965 35.089L31.5041 41.0817C31.5768 41.0989 31.6245 41.1467 31.6319 41.2093C31.6345 41.2313 31.6338 41.2797 31.5893 41.3205L5.77027 35.1504L6.0965 35.089ZM31.9447 41.1723C31.9219 40.9777 31.7774 40.8212 31.5763 40.7734L7.4116 35.0738L9.76738 34.6204C10.7152 34.8314 31.603 39.4879 33.924 40.4316C34.4618 40.6503 34.7029 41.6088 34.7981 42.3862C32.9249 42.3686 32.0001 42.1104 31.8128 41.5424C31.9108 41.4452 31.9611 41.3112 31.9447 41.1723ZM10.1395 28.6103C11.8747 26.3866 12.2365 23.0919 12.2846 22.5616C14.3544 20.8237 14.7097 16.9358 14.7627 16.1049C18.6916 16.0954 22.2024 15.7074 25.2002 14.9512C27.6347 14.3372 29.7392 13.4801 31.4553 12.4039C33.3644 11.2065 34.3598 10.0159 34.8323 9.30637C35.3049 10.0159 36.3003 11.2065 38.2093 12.4039C39.9254 13.4801 42.03 14.3372 44.4644 14.9512C47.4622 15.7074 50.9729 16.0954 54.9018 16.1049C54.9549 16.9358 55.3103 20.8237 57.38 22.5616C57.428 23.0918 57.7898 26.3866 59.5251 28.6103C59.4968 28.9692 59.3771 30.7819 59.6495 32.8298C59.7214 33.3703 59.8152 33.8831 59.9293 34.3679C58.8338 34.612 55.0228 35.464 50.7397 36.45V32.6408C50.7397 32.5886 50.7141 32.5398 50.6714 32.5102C50.6286 32.4808 50.5741 32.4743 50.5256 32.4931C50.5174 32.4962 50.3303 32.5688 50.004 32.6963C50.1485 32.633 50.2884 32.5612 50.4234 32.4817C51.2327 32.0992 51.8692 31.6452 52.3488 31.2253C53.5674 30.1586 54.0567 29.1034 54.077 29.0589C54.096 29.0171 54.096 28.9688 54.077 28.927C54.0567 28.8825 53.5673 27.8272 52.3488 26.7607C51.2274 25.7791 49.2512 24.609 46.2076 24.609C43.3934 24.5589 41.4311 25.6638 40.2908 26.5882C39.0227 27.6161 38.3971 28.6938 38.3243 28.9495C38.3181 28.9716 38.3165 28.9948 38.32 29.0175C38.33 29.0817 38.8531 30.1683 40.0607 31.2253C40.6121 31.708 41.3707 32.236 42.3612 32.6483L41.6515 34.2799C41.6166 34.3601 41.653 34.4534 41.7327 34.4885C41.7532 34.4975 41.7746 34.5019 41.7957 34.5019C41.8564 34.5019 41.9142 34.4664 41.94 34.4069L42.6545 32.7643C43.573 33.1089 44.6763 33.3497 45.9822 33.3744V34.2932C45.0377 34.6738 44.0185 35.0886 42.999 35.5108C35.3648 38.6722 35.1579 39.1534 35.08 39.3345C34.8908 39.7745 34.8233 40.4416 34.8074 41.0556C34.641 40.6374 34.398 40.2827 34.042 40.138C31.6548 39.1675 10.6947 34.5023 9.80368 34.3042C9.7862 34.3003 9.76825 34.3001 9.75061 34.3024C9.85778 33.8369 9.94644 33.3461 10.0151 32.8299C10.2875 30.7819 10.1678 28.9692 10.1395 28.6103ZM50.4245 36.5225C44.284 37.9378 37.2961 39.6018 35.9772 40.138C35.5484 40.3122 35.2834 40.7908 35.1192 41.319C35.1214 40.6713 35.1731 39.916 35.3691 39.4603C35.4475 39.2931 36.3613 38.6014 43.136 35.7964C46.3602 34.4615 49.5785 33.2014 50.4246 32.8717L50.4245 36.5225ZM40.2801 30.9974C39.2621 30.1103 38.7635 29.2117 38.6463 28.9827C38.9136 28.3278 41.2638 24.924 46.0196 24.924C46.0799 24.924 46.1409 24.9246 46.2047 24.9256C46.7992 24.9256 47.3505 24.9721 47.862 25.0529C45.5187 25.3955 44.4439 27.2877 44.4439 29.0154C44.4438 30.7074 45.4747 32.5575 47.7191 32.9549C47.2468 33.0225 46.7429 33.0603 46.2048 33.0603C43.264 33.0603 41.3598 31.9385 40.2801 30.9974ZM52.4062 29.0155C52.4062 28.0744 52.0816 27.2087 51.5398 26.5235C51.7587 26.6799 51.9555 26.837 52.1303 26.9894C53.1326 27.8632 53.6311 28.7479 53.7577 28.9927C53.6121 29.2729 52.9746 30.3926 51.6326 31.3864C52.1185 30.7216 52.4062 29.9019 52.4062 29.0155ZM46.2972 33.3759C47.4101 33.3672 48.3788 33.2025 49.2131 32.9483C49.3633 32.9175 49.5101 32.8774 49.6535 32.8302L49.6549 32.8331C48.8915 33.1326 47.6882 33.6073 46.2972 34.1665V33.3759ZM36.0953 40.4316C38.4163 39.4879 59.3041 34.8314 60.2518 34.6204L62.6075 35.0738L38.4426 40.7734C38.2418 40.8212 38.0972 40.9776 38.0744 41.1722C38.058 41.3112 38.1084 41.4452 38.2064 41.5424C38.0191 42.1104 37.0942 42.3686 35.2208 42.3861C35.316 41.6089 35.5568 40.6504 36.0953 40.4316ZM64.2489 35.1504L38.5567 41.2902C38.5486 41.2143 38.4879 41.1548 38.4115 41.1495C38.4335 41.1175 38.4683 41.0928 38.5148 41.0818L63.9227 35.089L64.2489 35.1504ZM5.46828 35.4216C5.54073 35.4325 5.63924 35.4501 5.75924 35.4733L25.5945 40.2134C29.2042 41.0947 30.9539 41.5178 31.4609 41.6226V76.4538L5.46813 71.1635C5.46813 70.918 5.46813 70.3385 5.46813 69.4978C6.02477 69.5931 6.59337 69.6415 7.15844 69.6415C7.34648 69.6415 7.53373 69.6353 7.7202 69.6248C8.06817 69.605 8.41322 69.5674 8.75387 69.512C11.2351 69.1085 13.4832 67.7791 14.9603 65.8168C15.568 65.7173 16.0851 65.5869 16.4548 65.4171C17.3795 64.9924 17.8789 63.7575 17.6165 62.5445C17.4866 61.9438 16.8751 60.1811 14.1745 59.6828C15.1221 59.5763 15.9341 59.4151 16.4548 59.1761C17.3795 58.7515 17.8789 57.5165 17.6166 56.3036C17.4866 55.7028 16.8752 53.9402 14.1747 53.4417C15.1223 53.3353 15.9343 53.1742 16.4549 52.9351C17.3904 52.5054 17.8815 51.3246 17.6225 50.1273C17.4987 49.5548 16.9222 47.9028 14.3892 47.3678C15.2444 47.2617 15.974 47.1072 16.4549 46.8864C17.3795 46.4618 17.879 45.2269 17.6166 44.0138C17.4647 43.3113 16.6548 41.0192 12.6136 41.0192C12.1081 41.0192 11.5931 41.0163 11.0746 41.0134C9.7284 41.006 8.36818 40.9985 7.08371 41.0393C6.97804 41.0426 6.87331 41.0465 6.76874 41.0505C6.32376 41.0677 5.88901 41.0913 5.4682 41.1232C5.4682 38.1568 5.46828 36.0133 5.46828 35.4216Z" fill="#161616"/>
</g>
<defs>
<clipPath id="clip0_239_291">
<rect width="70.1124" height="78" fill="white"/>
</clipPath>
</defs>
</svg>
