<svg width="294" height="213" viewBox="0 0 294 213" fill="none" xmlns="http://www.w3.org/2000/svg">
<g clip-path="url(#clip0_365_1812)">
<path d="M250.977 112.979L252.161 112.266L231.462 107.48C237.704 104.078 244.635 101.701 252.161 101.183L225.772 90.4429C230.166 88.6123 235.195 87.4337 240.955 87.1421L139.759 50.1719C139.759 50.1719 101.613 59.2443 100.707 99.8436L131.421 114.586L130.665 114.846L100.707 99.8436C100.707 99.8436 55.8477 66.7295 11.0398 88.9568L32.4614 99.8256C16.4902 97.8027 4.60476 105.038 4.60476 105.038L17.6054 111.76L17.8625 111.554L18.0097 111.969L17.6054 111.76L14.7927 114.02C5.62398 115.721 0.530273 120.546 0.530273 120.546L10.2154 125.534L5.39787 125.02L1.32895 127.31C0.992036 127.499 1.00715 127.99 1.35519 128.158L43.8082 148.684L42.8007 149.298L0.530273 127.76C0.530273 127.76 0.858703 136.588 1.08508 139.99L109.849 192.771C109.913 192.803 109.98 192.815 110.045 192.812L110.442 193.064C110.442 193.064 170.435 154.732 187.867 154.732L191.037 155.639L201.337 150.876C201.337 150.876 239.936 117.081 255.33 122.752V112.999C255.33 112.999 253.719 112.856 250.977 112.979Z" fill="#FFFAEE"/>
<path d="M200.517 106.1C200.432 106.1 200.345 106.079 200.264 106.035C200.007 105.894 199.913 105.572 200.053 105.314C203.566 98.8636 211.468 89.8761 219.139 84.0022C218.808 82.6396 218.84 80.8862 219.564 78.6432C221.867 71.5036 227.693 65.5428 235.55 62.289C243.5 58.997 252.24 59.0849 258.931 62.5257C259.191 62.6598 259.294 62.9798 259.16 63.2406C259.026 63.5011 258.706 63.6044 258.447 63.4706C252.029 60.1703 243.621 60.0957 235.955 63.2706C228.387 66.4051 222.78 72.1274 220.573 78.9699C220.044 80.6093 219.881 82.0609 220.075 83.2995C224.265 80.2242 228.329 78.153 231.507 78.0167C233.605 77.928 235.201 78.6817 236.245 80.2608C237.59 82.297 237.435 84.3607 235.807 86.0723C233.072 88.9482 226.167 90.3364 222.01 87.8567C221.178 87.3606 220.136 86.497 219.504 85.0788C212.054 90.8834 204.331 99.677 200.983 105.823C200.887 106 200.705 106.1 200.517 106.1ZM220.37 84.417C220.773 85.4687 221.502 86.3182 222.551 86.9445C226.252 89.1522 232.617 87.8851 235.039 85.3399C236.327 83.9855 236.435 82.4744 235.36 80.848C234.524 79.5833 233.279 79.0047 231.551 79.0785C228.504 79.2089 224.508 81.3141 220.37 84.417Z" fill="#74CE98"/>
<path d="M61.5033 92.5584C60.5485 92.5584 59.6072 92.189 58.6911 91.4534C54.1625 87.8151 51.111 75.4142 51.8818 68.1909C52.5151 62.258 50.3088 57.0467 47.8423 54.5137C46.5114 53.1476 45.0853 52.4842 43.7196 52.5979C42.2068 52.7211 40.7608 52.1982 39.423 51.0389C36.3417 48.37 34.2442 42.662 33.8116 35.771C33.4447 29.9278 29.6069 23.8771 24.8838 21.6962C22.7992 20.7343 19.6159 20.1121 16.2895 22.6151C16.0554 22.7911 15.723 22.7444 15.5473 22.5096C15.3713 22.2751 15.4187 21.9421 15.6525 21.766C19.3975 18.9475 22.9808 19.6478 25.3273 20.7314C30.3783 23.0636 34.4801 29.5005 34.8695 35.7043C35.2782 42.218 37.2888 47.7862 40.1161 50.2356C41.2308 51.2015 42.4146 51.6405 43.6326 51.5393C45.3241 51.3988 47.0428 52.1716 48.6012 53.7719C51.7739 57.0297 53.5163 62.8694 52.9363 68.304C52.1996 75.2068 55.1799 87.2706 59.3546 90.6245C60.3878 91.4547 61.3941 91.6876 62.4313 91.3373C62.7088 91.2425 63.0097 91.3926 63.1033 91.6706C63.1968 91.9487 63.0479 92.2501 62.7706 92.3436C62.3462 92.4867 61.9237 92.5584 61.5033 92.5584Z" fill="#74CE98"/>
<path d="M83.8779 213C83.664 213 83.463 212.87 83.3824 212.658C78.6023 200.103 77.4164 188.725 79.8575 178.841C81.8644 170.714 86.2203 163.801 92.8046 158.292C95.2382 156.256 97.8434 154.551 100.458 153.166C100.537 151.054 101.037 148.877 101.976 146.721C105.557 138.503 116.54 129.691 135.709 131.893C136 131.926 136.208 132.19 136.175 132.481C136.142 132.773 135.878 132.983 135.588 132.949C116.992 130.807 106.383 139.26 102.948 147.146C102.154 148.969 101.694 150.808 101.557 152.603C109.732 148.549 117.778 147.6 120.74 149.393C122.877 150.687 123.964 153.273 123.723 156.49C123.412 160.628 120.791 165.778 116.382 167.612C114.001 168.603 110.21 168.963 105.667 165.062C102.398 162.255 100.617 158.465 100.459 154.36C98.1053 155.646 95.7419 157.219 93.484 159.108C85.1696 166.064 72.9294 182.223 84.373 212.28C84.4775 212.553 84.3402 212.861 84.0666 212.965C84.0043 212.989 83.9407 213 83.8779 213ZM101.514 153.803C101.53 157.819 103.19 161.536 106.357 164.255C109.629 167.065 112.956 167.888 115.975 166.631C119.99 164.96 122.38 160.225 122.666 156.41C122.876 153.608 121.974 151.382 120.192 150.303C117.759 148.83 109.811 149.557 101.514 153.803Z" fill="#74CE98"/>
<path d="M182.528 32.0893L187.948 18.6479L174.003 22.5133L162.918 13.1949L162.278 27.6776L150.007 35.3598L163.557 40.445L167.058 54.511L176.073 43.1714L190.507 44.1827L182.528 32.0893Z" fill="#488AED"/>
<path d="M130.177 90.5189C130.097 90.5189 130.016 90.5011 129.94 90.4628C129.678 90.3316 129.572 90.0127 129.703 89.75C130.09 88.9743 130.686 87.6621 131.512 85.8459C136.137 75.6652 146.97 51.8243 162.133 31.7377C181.188 6.49727 200.194 -3.76761 218.625 1.2278C218.907 1.30428 219.074 1.59614 218.998 1.87924C218.921 2.16261 218.63 2.32859 218.348 2.25317C200.375 -2.61848 181.746 7.5176 162.979 32.3786C147.887 52.3711 137.089 76.1371 132.477 86.2859C131.647 88.1125 131.048 89.4324 130.652 90.2252C130.559 90.4116 130.372 90.5189 130.177 90.5189Z" fill="#FF6161"/>
<path d="M247.376 54.1084C247.369 54.1084 247.362 54.1081 247.355 54.1079C245.005 54.0144 243.935 52.2475 243.935 50.6453C243.935 49.0431 245.005 47.2763 247.355 47.1833H247.356C249.282 47.1833 250.832 48.7367 250.832 50.6456C250.832 52.5548 249.282 54.1084 247.376 54.1084ZM247.376 48.2451C245.738 48.3104 244.995 49.4981 244.995 50.6456C244.995 51.7908 245.735 52.9755 247.387 53.0461C248.703 53.0405 249.772 51.9658 249.772 50.6456C249.772 49.3217 248.697 48.2451 247.376 48.2451Z" fill="#FF6161"/>
<path d="M3.62536 172.393C3.60044 172.393 3.57526 172.391 3.54981 172.387C3.25955 172.346 3.05836 172.077 3.10024 171.786C4.43649 162.451 7.8968 156.277 13.3852 153.435C20.6586 149.67 29.1087 152.937 31.5169 154.022C34.6231 134.209 40.0951 119.276 47.7865 109.626C55.843 99.5189 64.3795 97.6437 70.1277 97.8455C75.5959 98.0399 80.9316 100.205 85.1522 103.941C89.1917 107.518 91.7187 112.158 92.0855 116.671C92.1091 116.963 91.892 117.219 91.5999 117.243C91.3091 117.272 91.0523 117.05 91.0287 116.757C90.6838 112.515 88.2859 108.134 84.4503 104.737C80.4134 101.163 75.3134 99.0926 70.0903 98.907C64.5878 98.7163 56.3965 100.527 48.6151 110.289C40.9502 119.906 35.5135 134.911 32.4558 154.888C32.4296 155.057 32.3246 155.203 32.173 155.28C32.0219 155.359 31.8417 155.359 31.6898 155.28C31.5917 155.23 21.777 150.284 13.8668 154.383C8.70342 157.058 5.43397 162.964 4.14994 171.938C4.11177 172.202 3.88487 172.393 3.62536 172.393Z" fill="#FF6161"/>
<path d="M55.1199 146.934L86.043 154.269L93.3647 123.288L62.4417 115.952L55.1199 146.934Z" fill="#FF6161"/>
<path d="M117.556 92.3715C117.475 92.3715 117.393 92.3531 117.317 92.3139C117.056 92.1813 116.951 91.8616 117.084 91.6C125.725 74.5354 128.699 50.5243 126.875 42.1309C125.848 37.4071 123.523 33.2026 120.683 30.5801C120.41 32.4659 120.005 34.3273 119.469 36.1348C117.158 43.9328 113.716 45.2941 111.87 45.4117C109.355 45.5772 106.861 43.7142 105.524 40.6787C104.249 37.7843 103.99 33.2162 107.454 29.8692C110.37 27.0509 113.62 26.0805 116.852 27.0629C117.881 27.3754 118.892 27.8875 119.863 28.5681C120.938 17.6236 117.378 7.54838 112.406 4.8369C109.491 3.24745 106.322 4.31266 103.238 7.91859C103.048 8.14141 102.714 8.1677 102.491 7.97649C102.269 7.7858 102.243 7.45065 102.433 7.22784C105.832 3.25223 109.554 2.07256 112.913 3.90394C116.228 5.71195 118.895 10.2612 120.228 16.385C121.136 20.5513 121.337 24.9837 120.845 29.3245C124.099 32.0638 126.777 36.6901 127.91 41.9054C128.902 46.4671 128.522 54.9413 126.918 64.0206C125.08 74.4263 121.923 84.3916 118.029 92.0815C117.936 92.265 117.75 92.3715 117.556 92.3715ZM114.373 27.7467C112.249 27.7467 110.178 28.7123 108.19 30.6332C105.123 33.5973 105.303 37.5439 106.495 40.2496C107.649 42.8726 109.733 44.4854 111.802 44.3511C114.514 44.1787 116.876 41.1533 118.452 35.832C119.049 33.8174 119.468 31.785 119.727 29.7728C118.707 28.9899 117.636 28.4104 116.546 28.0789C115.816 27.8575 115.091 27.7467 114.373 27.7467Z" fill="#FFE461"/>
<path d="M24.9402 68.7786C24.9336 68.7786 24.9262 68.7783 24.9193 68.778C22.5696 68.6846 21.4995 66.9177 21.4995 65.3155C21.4995 63.7133 22.5699 61.9465 24.9193 61.8535C24.9193 61.8535 24.9198 61.8535 24.9203 61.8535C26.8469 61.8535 28.3965 63.4068 28.3965 65.3158C28.3965 67.225 26.8461 68.7786 24.9402 68.7786ZM24.9402 62.9153C23.3023 62.9806 22.5601 64.1682 22.5598 65.3158C22.5598 66.4609 23.2991 67.6456 24.9508 67.7163C26.2672 67.7107 27.3365 66.6359 27.3365 65.3158C27.3362 63.9919 26.2613 62.9153 24.9402 62.9153Z" fill="#FFE461"/>
<path d="M293.47 132.952C293.288 132.952 293.11 132.857 293.012 132.688C282.742 114.997 269.278 105.052 252.994 103.13C238.434 101.41 224.38 106.539 215.153 111.143C203.491 116.963 195.25 123.907 192.219 127.092C192.018 127.305 191.682 127.313 191.47 127.11C191.258 126.908 191.25 126.572 191.452 126.359C194.53 123.124 202.887 116.077 214.68 110.193C224.037 105.524 238.301 100.326 253.118 102.075C269.751 104.039 283.482 114.159 293.928 132.154C294.076 132.407 293.989 132.733 293.736 132.88C293.652 132.929 293.561 132.952 293.47 132.952Z" fill="#FFE461"/>
<path d="M233.952 93.3716C242.492 93.3716 249.416 86.4351 249.416 77.8784C249.416 69.3218 242.492 62.3853 233.952 62.3853C225.411 62.3853 218.487 69.3218 218.487 77.8784C218.487 86.4351 225.411 93.3716 233.952 93.3716Z" fill="#FFE461"/>
<path d="M164.055 92.0247C168.824 102.554 164.169 114.964 153.659 119.742C143.148 124.519 130.762 119.857 125.993 109.326L164.055 92.0247Z" fill="#FFA9E7"/>
<path d="M84.8109 65.8679L99.9224 57.5491L85.1757 48.5975L70.4292 39.6459L70.0645 56.9163L69.6997 74.1867L84.8109 65.8679Z" fill="#51AF77"/>
<path d="M174.117 33.0942C176.018 33.0942 177.558 31.5509 177.558 29.6471C177.558 27.7433 176.018 26.2 174.117 26.2C172.217 26.2 170.677 27.7433 170.677 29.6471C170.677 31.5509 172.217 33.0942 174.117 33.0942Z" fill="white"/>
<path d="M167.334 35.8822C169.234 35.8822 170.775 34.3388 170.775 32.4348C170.775 30.5309 169.234 28.9874 167.334 28.9874C165.434 28.9874 163.893 30.5309 163.893 32.4348C163.893 34.3388 165.434 35.8822 167.334 35.8822Z" fill="white"/>
<path d="M77.3252 142.863C79.2253 142.863 80.7656 141.32 80.7656 139.416C80.7656 137.512 79.2253 135.969 77.3252 135.969C75.4251 135.969 73.8848 137.512 73.8848 139.416C73.8848 141.32 75.4251 142.863 77.3252 142.863Z" fill="white"/>
<path d="M69.2962 140.656C71.1964 140.656 72.7368 139.112 72.7368 137.208C72.7368 135.305 71.1964 133.761 69.2962 133.761C67.3959 133.761 65.8555 135.305 65.8555 137.208C65.8555 139.112 67.3959 140.656 69.2962 140.656Z" fill="white"/>
<path d="M73.8513 142.304L70.5426 141.519C70.2603 141.452 70.0085 141.713 70.0845 141.993L71.0176 145.438C71.0971 145.731 71.4701 145.82 71.6729 145.593L74.0488 142.934C74.2423 142.717 74.1341 142.371 73.8513 142.304Z" fill="white"/>
<path d="M228.867 81.3034C230.767 81.3034 232.308 79.7601 232.308 77.8563C232.308 75.9525 230.767 74.4092 228.867 74.4092C226.967 74.4092 225.426 75.9525 225.426 77.8563C225.426 79.7601 226.967 81.3034 228.867 81.3034Z" fill="white"/>
<path d="M235.402 86.2083C237.302 86.2083 238.842 84.665 238.842 82.7612C238.842 80.8574 237.302 79.3141 235.402 79.3141C233.501 79.3141 231.961 80.8574 231.961 82.7612C231.961 84.665 233.501 86.2083 235.402 86.2083Z" fill="white"/>
<path d="M144.865 115.199C146.765 115.199 148.306 113.656 148.306 111.752C148.306 109.848 146.765 108.305 144.865 108.305C142.964 108.305 141.424 109.848 141.424 111.752C141.424 113.656 142.964 115.199 144.865 115.199Z" fill="white"/>
<path d="M153.449 111.297C155.349 111.297 156.89 109.753 156.89 107.849C156.89 105.946 155.349 104.402 153.449 104.402C151.549 104.402 150.008 105.946 150.008 107.849C150.008 109.753 151.549 111.297 153.449 111.297Z" fill="white"/>
<path d="M83.9402 60.9606C85.8404 60.9606 87.3809 59.4173 87.3809 57.5135C87.3809 55.6097 85.8404 54.0664 83.9402 54.0664C82.04 54.0664 80.4995 55.6097 80.4995 57.5135C80.4995 59.4173 82.04 60.9606 83.9402 60.9606Z" fill="white"/>
<path d="M77.679 64.4072C79.5792 64.4072 81.1197 62.8639 81.1197 60.9601C81.1197 59.0563 79.5792 57.5129 77.679 57.5129C75.7787 57.5129 74.2383 59.0563 74.2383 60.9601C74.2383 62.8639 75.7787 64.4072 77.679 64.4072Z" fill="white"/>
<path d="M34.9133 137.657L1.47876 120.437C3.04721 119.18 7.72104 115.872 14.8895 114.542C15.1774 114.489 15.3677 114.212 15.3147 113.923C15.298 113.833 15.2582 113.755 15.2049 113.689C15.0864 113.541 14.8945 113.461 14.6968 113.497C5.47982 115.207 0.37922 119.958 0.166629 120.159C0.0415129 120.278 -0.0178642 120.45 0.00625778 120.62C0.0303797 120.791 0.13535 120.939 0.288299 121.018L8.75404 125.377L34.6369 138.708C34.7273 138.355 34.8203 138.006 34.9133 137.657Z" fill="#161616"/>
<path d="M104.782 174.769C104.93 174.769 105.075 174.708 105.179 174.591C107.104 172.416 109.708 170.303 112.955 168.266C112.418 168.255 111.852 168.193 111.259 168.063C108.602 169.838 106.401 171.677 104.662 173.579L87.8504 164.921C87.6317 165.2 87.4141 165.487 87.1978 165.778L104.54 174.71C104.617 174.75 104.7 174.769 104.782 174.769Z" fill="#161616"/>
<path d="M40.0458 122.764L5.73275 105.023C8.70372 103.473 19.139 98.7011 32.3048 100.341L48.6176 108.618C48.8564 108.335 49.0958 108.059 49.3351 107.791L32.7074 99.3547C32.7032 99.3526 32.6995 99.3507 32.6952 99.3488L12.2329 88.9666C26.7302 82.0351 41.1917 80.9787 53.6649 82.4035C53.5488 82.0288 53.4359 81.6506 53.3288 81.2682C50.2255 80.9251 47.1506 80.7495 44.115 80.7495C44.0614 80.7495 44.0066 80.7495 43.953 80.7498C32.2512 80.7734 21.0989 83.3747 10.805 88.4811C10.625 88.5703 10.511 88.7536 10.5102 88.9546C10.5094 89.1557 10.6218 89.34 10.8007 89.4308L29.7261 99.0325C15.161 98.1099 4.44342 104.515 4.32996 104.584C4.16615 104.684 4.06913 104.864 4.07549 105.056C4.08212 105.249 4.19186 105.422 4.3623 105.51L17.153 112.123L39.6233 123.741C39.7627 123.413 39.9035 123.086 40.0458 122.764Z" fill="#161616"/>
<path d="M92.4036 129.642L93.8761 123.413C93.9434 123.128 93.7672 122.841 93.4825 122.774L66.0264 116.259L50.3177 108.29C50.0757 108.556 49.8342 108.831 49.5927 109.113L62.1727 115.495C62.1682 115.498 62.1637 115.5 62.1592 115.501C62.0397 115.576 61.9546 115.694 61.9217 115.831L58.0792 132.088L40.9881 123.252C40.846 123.575 40.7063 123.901 40.5669 124.23L57.8271 133.154L54.5987 146.812C54.5314 147.098 54.7074 147.384 54.9921 147.451L85.9145 154.788C85.9548 154.798 85.9962 154.802 86.0367 154.802C86.1343 154.802 86.2308 154.775 86.3153 154.723C86.4346 154.649 86.52 154.53 86.5528 154.394L87.8981 148.702L98.5759 154.223C98.9409 154.007 99.3067 153.798 99.6733 153.595L88.1499 147.636L92.1521 130.705L108.027 138.759C108.318 138.51 108.618 138.266 108.927 138.025L92.4036 129.642ZM55.7528 146.54L62.8312 116.593L92.722 123.684L85.6436 153.631L55.7528 146.54Z" fill="#161616"/>
<path d="M35.8773 138.153C35.7845 138.502 35.6917 138.851 35.6011 139.205L86.2033 165.267C86.417 164.978 86.6378 164.695 86.8602 164.411L35.8773 138.153Z" fill="#161616"/>
<path d="M109.25 159.741C109.448 159.842 109.688 159.811 109.852 159.66C112.679 157.061 116.845 154.804 122.251 152.915C122.121 152.557 121.963 152.223 121.778 151.915C116.476 153.786 112.343 156.025 109.41 158.628L101.537 154.557C101.56 154.983 101.607 155.404 101.668 155.821L109.25 159.741Z" fill="#161616"/>
<path d="M100.459 154.361C100.201 154.501 99.9428 154.648 99.6846 154.795L100.519 155.227C100.492 154.939 100.471 154.651 100.459 154.361Z" fill="#161616"/>
<path d="M115.294 166.874C116.178 166.374 117.102 165.88 118.065 165.39C118.873 164.75 119.582 163.977 120.188 163.128C117.384 164.437 114.863 165.788 112.631 167.181C113.536 167.244 114.426 167.142 115.294 166.874Z" fill="#161616"/>
<path d="M34.5511 143.619C34.4724 143.973 34.3947 144.328 34.3179 144.686L43.2687 149.014L83.9531 168.685C84.132 168.378 84.3149 168.073 84.5029 167.771L34.5511 143.619Z" fill="#161616"/>
<path d="M80.1453 177.766L32.4947 154.642C32.482 154.725 32.4685 154.806 32.456 154.888C32.4298 155.058 32.3248 155.203 32.1732 155.281C32.0221 155.359 31.8418 155.359 31.6899 155.281C31.6621 155.267 30.8266 154.846 29.4673 154.354L79.866 178.811C79.9529 178.459 80.0494 178.113 80.1453 177.766Z" fill="#161616"/>
<path d="M29.7326 153.301L1.59428 139.646C1.41482 136.782 1.1797 130.853 1.09328 128.619C1.10388 128.625 1.11369 128.632 1.12456 128.637L23.1699 139.295L33.3366 144.211C33.414 143.854 33.4912 143.497 33.5702 143.145L1.67592 127.724L5.6571 125.483C5.81243 125.396 5.90574 125.241 5.92377 125.076C5.93516 124.97 5.91581 124.86 5.85988 124.76C5.71648 124.505 5.39308 124.413 5.13781 124.557L1.06916 126.847C0.897921 126.943 0.763262 127.085 0.674461 127.252C0.622506 127.236 0.567901 127.227 0.510379 127.229C0.217735 127.239 -0.0104955 127.486 0.000372581 127.779C0.00381857 127.867 0.331718 136.654 0.556237 140.024C0.568961 140.215 0.682679 140.384 0.854183 140.467L24.5104 151.947C26.5724 152.267 28.3858 152.811 29.7326 153.301Z" fill="#161616"/>
<path d="M239.564 103.308C236.84 104.273 234.131 105.488 231.446 106.952C231.277 106.957 231.122 107.042 231.028 107.178C230.152 107.665 229.279 108.177 228.41 108.715C222.228 112.545 216.178 117.705 210.427 124.052C203.145 132.089 198.179 140.045 196.093 143.629C196.377 139.4 197.407 129.724 201.085 119.644C200.56 120.024 200.053 120.397 199.566 120.765C195.795 131.81 195.083 142.087 194.953 145.015L147.47 121.96C153.737 121.133 159.528 117.632 163.036 112.41C167.002 106.506 167.538 99.1953 164.546 91.8252C164.492 91.6911 164.386 91.5854 164.252 91.532C164.118 91.4781 163.968 91.482 163.837 91.5415L125.775 108.843C125.644 108.903 125.542 109.014 125.494 109.15C125.446 109.286 125.455 109.436 125.52 109.565C125.94 110.401 126.393 111.198 126.875 111.959L101.246 99.5156C101.815 78.9805 112.213 66.8232 120.862 60.2314C122.92 58.6629 124.978 57.3285 126.942 56.1968C126.987 55.7605 127.028 55.3311 127.067 54.9056C124.882 56.1289 122.567 57.6001 120.253 59.3609C114.593 63.6682 110.043 68.8272 106.731 74.6939C102.737 81.7669 100.55 89.8905 100.213 98.8485C97.3354 96.8755 87.0091 90.1945 72.8416 85.5606C66.6584 83.5383 60.5147 82.1496 54.4766 81.4023C54.5887 81.7879 54.7051 82.1692 54.8265 82.5453C61.3871 83.3829 67.3701 84.8903 72.4811 86.5602C89.0314 91.9678 100.282 100.19 100.394 100.272C100.404 100.28 100.416 100.285 100.427 100.292C100.439 100.3 100.452 100.309 100.465 100.315C100.469 100.318 100.473 100.321 100.477 100.322L128.108 113.739C132.212 119.136 138.032 122.149 144.617 122.149C144.878 122.149 145.138 122.143 145.398 122.134L152.156 125.415L182.965 140.374C169.79 136.728 155.122 136.49 143.878 137.137C128.657 138.014 116.475 140.649 114.825 141.017L109.974 138.556C109.658 138.793 109.35 139.034 109.052 139.279L114.516 142.051C114.627 142.108 114.754 142.123 114.876 142.095C115.002 142.065 127.744 139.129 143.956 138.197C157.638 137.409 176.425 137.941 191.254 144.399L192.909 145.202C187.464 144.992 174.083 144.648 159.471 145.564C144.092 146.528 131.838 148.538 122.8 151.564C122.976 151.881 123.13 152.218 123.258 152.574C132.251 149.589 144.473 147.569 159.527 146.625C171.152 145.896 181.995 145.967 188.659 146.132C181.568 147.064 169.695 148.832 157.009 151.615C142.652 154.765 130.935 158.349 121.924 162.338C121.595 162.935 121.224 163.512 120.812 164.057C130.006 159.789 142.261 155.939 157.227 152.655C164.39 151.083 171.293 149.836 177.218 148.881C171.737 150.254 165.426 151.958 158.878 153.972C133.384 161.812 116.513 170.391 108.718 179.479L85.5138 168.26C85.3277 168.559 85.1438 168.862 84.9627 169.173L108.627 180.615C108.7 180.65 108.779 180.667 108.857 180.667C109.01 180.667 109.16 180.601 109.264 180.476C116.695 171.561 133.955 162.748 159.178 154.99C171.433 151.222 182.859 148.539 189.524 147.091C193.167 146.62 195.37 146.391 195.503 146.378C195.51 146.377 195.517 146.374 195.524 146.373C195.544 146.37 195.564 146.367 195.584 146.363C195.588 146.361 195.593 146.362 195.597 146.36C195.604 146.358 195.612 146.353 195.62 146.351C195.624 146.35 195.627 146.349 195.631 146.347C195.637 146.345 195.643 146.345 195.648 146.343C195.65 146.342 195.652 146.34 195.654 146.339C195.671 146.332 195.688 146.322 195.705 146.314C195.713 146.309 195.721 146.307 195.729 146.302C195.731 146.301 195.732 146.301 195.734 146.3C195.737 146.297 195.739 146.294 195.743 146.293C195.755 146.285 195.766 146.276 195.778 146.266C195.782 146.264 195.786 146.263 195.789 146.26C195.79 146.261 195.791 146.259 195.791 146.259C195.791 146.259 195.792 146.258 195.792 146.258C195.797 146.253 195.801 146.247 195.806 146.243C195.816 146.234 195.827 146.226 195.836 146.216C195.84 146.213 195.842 146.209 195.845 146.205C195.852 146.197 195.858 146.188 195.865 146.18C195.873 146.17 195.881 146.16 195.889 146.149C195.894 146.143 195.898 146.139 195.902 146.133C206.918 128.822 222.473 120.881 233.583 117.267C244.052 113.862 252.651 113.55 254.8 113.529V122.02C248.164 120.134 237.226 124.241 222.266 134.245C211.259 141.606 201.871 149.709 201.046 150.426L191.033 155.055C182.89 151.611 156.821 163.558 113.533 190.575C112.49 191.226 111.579 191.795 110.972 192.167V191.185C114.918 188.421 169.07 150.822 190.879 152.653C190.959 152.66 191.039 152.648 191.114 152.619L199.603 149.33C199.664 149.307 199.719 149.273 199.767 149.23C200.116 148.915 234.958 117.776 253.936 120.407C254.224 120.445 254.493 120.245 254.533 119.954C254.573 119.663 254.371 119.395 254.081 119.355C245.881 118.221 234.12 122.779 219.122 132.907C208.538 140.053 200.007 147.594 199.131 148.374L190.844 151.584C181.186 150.837 164.689 157.145 141.801 170.333C127.067 178.821 114.289 187.583 110.971 189.89V183.764C110.971 183.471 110.734 183.233 110.441 183.233C110.149 183.233 109.911 183.471 109.911 183.764V190.054L81.8022 176.152C81.6896 176.488 81.5814 176.83 81.4764 177.175L109.911 191.239V192.211L81.1652 178.261C81.0714 178.607 80.9807 178.956 80.8949 179.31L109.613 193.247C109.712 193.296 109.816 193.32 109.92 193.332C109.944 193.384 109.967 193.418 109.97 193.423C110.085 193.58 110.191 193.656 110.336 193.656C110.576 193.656 110.923 193.444 111.584 193.038C112.166 192.681 113.014 192.151 114.093 191.478C168.13 157.751 185.635 153.633 190.807 156.119C190.95 156.188 191.116 156.189 191.259 156.122L201.559 151.359C201.605 151.338 201.648 151.31 201.686 151.276C202.07 150.941 240.22 117.753 255.148 123.25C255.31 123.311 255.492 123.287 255.634 123.188C255.776 123.088 255.861 122.926 255.861 122.752V112.999C255.861 112.985 255.858 112.972 255.857 112.959C255.855 112.94 255.855 112.92 255.851 112.9C255.848 112.883 255.842 112.867 255.837 112.851C255.832 112.835 255.829 112.818 255.823 112.802C255.816 112.785 255.806 112.77 255.798 112.754C255.791 112.739 255.784 112.725 255.776 112.712C255.767 112.697 255.755 112.684 255.744 112.671C255.734 112.657 255.725 112.644 255.713 112.632C255.702 112.62 255.689 112.611 255.677 112.6C255.663 112.588 255.651 112.576 255.637 112.566C255.622 112.555 255.606 112.547 255.591 112.538C255.576 112.531 255.563 112.521 255.548 112.514C255.526 112.504 255.502 112.497 255.477 112.49C255.468 112.487 255.459 112.483 255.45 112.481L233.084 107.309C236.774 105.393 240.726 103.835 244.906 102.835C243.101 102.91 241.318 103.073 239.564 103.308ZM126.72 109.58L163.767 92.739C166.392 99.5958 165.827 106.351 162.156 111.816C158.316 117.534 151.595 121.086 144.617 121.086C137.072 121.086 130.577 116.901 126.72 109.58ZM233.295 116.245C226.114 118.577 219.481 121.867 213.579 126.024C209.395 128.971 205.575 132.361 202.15 136.161C204.544 132.743 207.588 128.766 211.212 124.766C216.355 119.089 223.304 112.699 231.664 108.073L251.375 112.63C247.407 112.934 240.827 113.799 233.295 116.245Z" fill="#161616"/>
<path d="M148.78 54.033L217.948 79.3027C218.085 80.9049 218.483 82.4728 219.132 83.973C219.573 84.9915 220.129 85.9786 220.797 86.9235C221.724 88.2328 222.867 89.4608 224.216 90.5804C220.727 92.1986 217.51 94.2961 214.585 96.8732C208.889 101.892 204.286 108.713 200.904 117.148C200.659 117.757 200.427 118.367 200.202 118.975C200.705 118.61 201.224 118.239 201.76 117.866C201.803 117.759 201.844 117.651 201.887 117.544C207.073 104.611 214.874 95.8247 225.17 91.2685C227.452 92.7759 230.039 93.6595 232.755 93.8581L249.949 100.856C248.209 101.062 246.469 101.372 244.734 101.782C246.682 101.697 248.655 101.715 250.643 101.849C251.157 101.795 251.675 101.749 252.197 101.713C252.443 101.696 252.645 101.511 252.684 101.267C252.723 101.023 252.589 100.784 252.36 100.691L235.488 93.8241C239.97 93.3995 244.014 91.1464 246.751 87.486C249.313 84.0607 250.39 79.8407 249.783 75.6038C249.176 71.3669 246.96 67.6199 243.524 65.0417C241.791 63.8451 240.011 62.9774 238.201 62.4405C237.565 62.2516 236.925 62.1029 236.282 61.9964C235.456 61.8599 234.626 61.7917 233.791 61.7917C227.167 61.7917 221.15 66.2121 218.817 72.7916C218.182 74.5797 217.881 76.3822 217.894 78.153L149.322 53.1008C149.14 53.4121 148.959 53.7228 148.78 54.033ZM219.817 73.147C221.965 67.0864 227.713 62.8537 233.792 62.8537C236.908 62.8537 239.98 63.8841 242.906 65.9038C246.098 68.3 248.169 71.7984 248.734 75.7544C249.301 79.7103 248.295 83.6506 245.903 86.8489C243.056 90.6569 238.695 92.841 233.939 92.841C230.694 92.841 227.602 91.8074 225.013 89.8653C219.608 85.4621 217.666 79.2124 219.817 73.147Z" fill="#161616"/>
<path d="M128.081 55.554C134 52.3116 138.829 50.963 139.731 50.7272L147.769 53.6636C147.948 53.3532 148.128 53.0422 148.309 52.7307L139.941 49.6731C139.843 49.6378 139.737 49.6314 139.637 49.6553C139.568 49.6721 134.57 50.8908 128.194 54.2869C128.16 54.7047 128.122 55.1277 128.081 55.554Z" fill="#161616"/>
<path d="M2.58324 137.562C2.45362 137.825 2.56124 138.144 2.82393 138.273L31.7504 152.581C31.8108 152.214 31.8723 151.85 31.9343 151.487L3.29285 137.321C3.03096 137.191 2.71287 137.299 2.58324 137.562Z" fill="#161616"/>
<path d="M32.7432 153.071L80.4648 176.674C80.5701 176.331 80.6766 175.989 80.7906 175.651L32.9263 151.977C32.8651 152.341 32.8031 152.704 32.7432 153.071Z" fill="#161616"/>
<path d="M163.111 40.8444L166.544 54.6393C166.593 54.8356 166.748 54.9872 166.946 55.03C166.983 55.0382 167.021 55.0422 167.058 55.0422C167.218 55.0422 167.371 54.9702 167.473 54.8419L176.314 43.7206L190.471 44.7125C190.672 44.7271 190.863 44.6251 190.966 44.4504C191.067 44.2759 191.061 44.0584 190.949 43.89L183.124 32.0293L188.44 18.8469C188.516 18.6594 188.479 18.4453 188.345 18.2945C188.21 18.1439 188.002 18.0826 187.808 18.1359L174.13 21.9267L172.743 20.7601L171.929 20.0762L163.26 12.7881C163.105 12.6585 162.891 12.6277 162.706 12.7087C162.521 12.7902 162.398 12.9695 162.39 13.1713L161.762 27.3749L149.727 34.9089C149.556 35.0159 149.461 35.2114 149.481 35.4124C149.501 35.6135 149.633 35.7856 149.822 35.8567L157.193 38.6229L158.215 39.0064L163.111 40.8444ZM162.808 27.7013L163.401 14.2939L173.662 22.9202C173.796 23.0328 173.976 23.0721 174.144 23.0254L187.054 19.4468L182.036 31.8902C181.971 32.0522 181.989 32.2362 182.086 32.382L189.472 43.5777L176.109 42.6416C175.937 42.6317 175.767 42.7034 175.658 42.8405L167.313 53.3383L164.071 40.3168C164.03 40.1471 163.907 40.0092 163.743 39.9476L151.199 35.2398L162.559 28.1281C162.707 28.0357 162.801 27.8758 162.808 27.7013Z" fill="#161616"/>
<path d="M163.593 31.1203C163.007 32.7114 163.481 34.3664 164.877 35.5607C165.584 36.1189 166.433 36.4137 167.332 36.4137C168.558 36.4137 169.696 35.8608 170.454 34.8967C170.692 34.5932 170.877 34.265 171.014 33.9234C171.07 34.0198 171.155 34.1003 171.266 34.1465C171.536 34.2588 171.846 34.1306 171.959 33.86C172.041 33.6634 172.428 33.3086 172.777 33.2398C172.948 33.2059 173.028 33.2584 173.083 33.3137C173.358 33.5912 173.128 34.4604 172.945 34.8633C172.867 35.0322 172.884 35.2292 172.988 35.3833C173.092 35.537 173.269 35.6271 173.455 35.6162C173.689 35.6029 174.114 35.6558 174.273 35.8042C174.306 35.835 174.326 35.869 174.328 35.9426C174.333 36.1803 174.256 36.3622 174.085 36.5157C173.75 36.8174 173.198 36.8885 172.977 36.8609C172.686 36.82 172.421 37.0288 172.384 37.3198C172.347 37.6109 172.552 37.8773 172.842 37.9144C172.91 37.9232 172.987 37.928 173.072 37.928C173.552 37.928 174.272 37.775 174.793 37.3063C175.193 36.9464 175.399 36.4673 175.388 35.9208C175.381 35.5673 175.244 35.2571 174.992 35.0237C174.751 34.8001 174.436 34.6814 174.149 34.619C174.226 34.3247 174.286 33.9696 174.265 33.6172C175.433 33.5739 176.51 33.0332 177.236 32.1088C177.893 31.2741 178.185 30.233 178.061 29.1779C177.935 28.1225 177.407 27.1795 176.558 26.5092C175.788 25.9499 174.934 25.6541 174.088 25.6541C172.458 25.6541 170.966 26.7304 170.376 28.3323C170.218 28.7604 170.14 29.1931 170.133 29.6204C170.02 29.5075 169.902 29.3984 169.774 29.2969C169.005 28.7376 168.15 28.4418 167.305 28.4418C165.675 28.4418 164.183 29.5184 163.593 31.1203ZM168.007 29.5954L167.68 31.2717L169.198 32.2487L167.331 33.0651L166.893 35.3171C166.399 35.2431 165.938 35.0457 165.55 34.7395C164.506 33.8467 164.156 32.6614 164.588 31.4879C165.018 30.3201 166.136 29.504 167.305 29.504C167.541 29.504 167.775 29.5349 168.007 29.5954ZM171.257 33.0192C171.286 32.8232 171.3 32.6258 171.299 32.428C171.387 32.5201 171.48 32.6102 171.578 32.6975C171.457 32.7985 171.35 32.9081 171.257 33.0192ZM171.371 28.7002C171.801 27.5322 172.919 26.7163 174.089 26.7163C174.325 26.7163 174.559 26.7471 174.79 26.8077L174.464 28.4835L175.981 29.4608L174.115 30.2771L173.693 32.4405C173.408 32.2219 173.057 32.1327 172.679 32.1823C172.559 32.1136 172.442 32.0376 172.333 31.9516C171.289 31.0587 170.939 29.8735 171.371 28.7002Z" fill="#161616"/>
<path d="M81.2464 139.93C81.4786 138.23 80.6455 136.217 78.2402 135.544C77.9385 135.473 77.6297 135.437 77.3225 135.437C75.4752 135.437 73.8874 136.696 73.4611 138.499C73.1693 139.734 73.4919 140.972 74.2296 141.895C74.1508 141.849 74.0666 141.81 73.9738 141.787L70.6654 141.003H70.6646L70.6479 140.998C70.6447 140.998 70.6423 140.997 70.6394 140.996L70.5567 140.977C71.6658 140.601 72.5853 139.744 73.0118 138.614C73.785 136.561 72.7475 134.261 70.6794 133.48C70.1893 133.316 69.7018 133.233 69.2292 133.233C67.3667 133.233 65.7967 134.559 65.4121 136.459C65.0245 138.371 65.9913 140.123 67.8943 140.93C68.3457 141.101 68.817 141.188 69.2957 141.188C69.5189 141.188 69.7389 141.167 69.9544 141.13C69.8691 141.186 69.7917 141.255 69.7283 141.338C69.5547 141.565 69.498 141.855 69.5727 142.132L70.506 145.576C70.6139 145.974 70.9766 146.252 71.3893 146.252C71.6475 146.252 71.8948 146.141 72.0681 145.947L74.4438 143.288C74.6609 143.045 74.7322 142.715 74.6349 142.404C74.62 142.357 74.5962 142.316 74.5744 142.273C75.0738 142.756 75.7034 143.12 76.4308 143.292C76.7449 143.353 77.0563 143.385 77.3572 143.385H77.3577C79.7045 143.385 81.0184 141.594 81.2464 139.93ZM68.2879 139.945C67.5398 139.627 67.051 139.169 66.7571 138.661C67.1025 138.682 67.6045 138.714 68.0973 138.745C69.9603 138.862 71.0166 138.929 71.6324 138.942C71.0911 139.67 70.2267 140.126 69.2957 140.126C68.9453 140.126 68.5996 140.062 68.2879 139.945ZM66.4506 136.67C66.5795 136.034 66.9373 135.371 67.5003 134.907L70.734 137.842C69.9194 137.795 68.9058 137.731 68.1638 137.684C67.2581 137.626 66.7316 137.594 66.4106 137.599C66.3743 137.279 66.391 136.963 66.4506 136.67ZM72.163 137.705L68.5095 134.391C68.7332 134.331 68.9721 134.296 69.2286 134.296C69.5873 134.296 69.9624 134.36 70.3239 134.48C71.6498 134.982 72.3963 136.355 72.163 137.705ZM74.4196 139.545C74.9373 139.879 75.8503 140.415 77.4624 141.362C77.8863 141.611 78.3184 141.866 78.6161 142.041C78.2555 142.217 77.8373 142.323 77.358 142.323H77.3575C77.1247 142.323 76.8814 142.299 76.6553 142.255C75.3612 141.947 74.4764 140.814 74.4196 139.545ZM77.3222 136.499C77.5475 136.499 77.7742 136.526 77.9754 136.573C78.6855 136.772 79.1976 137.112 79.5518 137.52L74.6704 138.221C75.1316 137.186 76.1556 136.499 77.3222 136.499ZM80.1954 139.785C80.1209 140.333 79.886 140.898 79.4972 141.355C79.2353 141.172 78.7817 140.906 77.9984 140.446C77.3569 140.068 76.4803 139.554 75.7792 139.135L80.0946 138.515C80.2248 138.947 80.2497 139.389 80.1954 139.785ZM73.4884 142.765L71.4582 145.037L70.6606 142.094L73.4884 142.765Z" fill="#161616"/>
<path d="M231.248 74.6724C230.555 74.1524 229.733 73.8778 228.869 73.8778C227.605 73.8778 226.445 74.4584 225.689 75.4707C225.053 76.3211 224.786 77.3688 224.936 78.4207C225.086 79.4726 225.637 80.4029 226.502 81.052C227.268 81.5802 228.075 81.8482 228.902 81.8482C230.55 81.8482 232.045 80.7543 232.622 79.126C233.197 77.5061 232.689 75.846 231.248 74.6724ZM228.263 80.7096L228.549 79.0278L227.009 78.0879L228.855 77.2267L229.239 74.9656C229.734 75.0283 230.201 75.2142 230.595 75.5098C231.672 76.3872 232.047 77.5756 231.623 78.7707C231.203 79.9573 230.083 80.7861 228.902 80.7861C228.688 80.7861 228.475 80.7593 228.263 80.7096Z" fill="#161616"/>
<path d="M232.223 80.3759C230.911 82.1316 231.268 84.6301 233.037 85.9574C233.803 86.4856 234.61 86.7536 235.437 86.7536C237.085 86.7536 238.579 85.6597 239.157 84.0315C239.732 82.4112 239.224 80.7511 237.782 79.5776C237.09 79.0576 236.267 78.7827 235.403 78.7827C234.14 78.7827 232.981 79.3633 232.223 80.3759ZM238.158 83.6759C237.737 84.8624 236.618 85.6913 235.437 85.6913C235.223 85.6913 235.009 85.6645 234.798 85.6148L235.083 83.9329L233.543 82.9931L235.389 82.1318L235.773 79.8705C236.269 79.9332 236.735 80.1193 237.13 80.4149C238.207 81.2921 238.582 82.4808 238.158 83.6759Z" fill="#161616"/>
<path d="M230.193 81.8727C229.498 81.8727 228.659 82.463 227.822 83.5482C226.947 84.7568 226.636 85.827 226.971 86.4846C227.147 86.8301 227.479 87.028 227.882 87.028C228.577 87.028 229.416 86.4376 230.253 85.3525C231.129 84.1438 231.439 83.0736 231.104 82.416C230.928 82.0705 230.596 81.8727 230.193 81.8727ZM229.404 84.7154C228.67 85.6677 228.117 85.9452 227.904 85.9643C227.873 85.7981 227.931 85.2064 228.671 84.185C229.392 83.2507 229.937 82.966 230.171 82.9382C230.201 83.1076 230.14 83.6985 229.404 84.7154Z" fill="#161616"/>
<path d="M141.003 112.621C141.436 114.453 142.995 115.732 144.794 115.732C145.349 115.732 145.918 115.615 146.505 115.375C147.339 114.996 147.975 114.362 148.371 113.607C148.32 113.742 148.321 113.896 148.39 114.034C148.884 115.027 149.74 115.45 150.574 115.45C150.934 115.45 151.291 115.371 151.612 115.224C152.678 114.74 153.443 113.481 152.842 112.01C152.792 111.89 152.703 111.799 152.596 111.743C152.85 111.797 153.111 111.828 153.378 111.828C153.934 111.828 154.503 111.711 155.09 111.471C156.056 111.033 156.793 110.243 157.166 109.248C157.539 108.253 157.503 107.173 157.065 106.205C156.422 104.786 155.002 103.87 153.447 103.87C152.88 103.87 152.328 103.989 151.789 104.235C149.64 105.317 149.243 107.26 149.587 108.718C149.935 110.186 151.006 111.297 152.344 111.681C152.279 111.682 152.214 111.694 152.15 111.72C151.88 111.831 151.75 112.141 151.861 112.412C152.226 113.305 151.779 113.981 151.174 114.255C150.57 114.53 149.767 114.421 149.338 113.559C149.208 113.296 148.889 113.189 148.627 113.321C148.545 113.361 148.481 113.422 148.432 113.492C148.931 112.463 148.988 111.228 148.48 110.107C147.838 108.688 146.417 107.772 144.862 107.772C144.295 107.772 143.744 107.891 143.204 108.137C141.055 109.22 140.658 111.163 141.003 112.621ZM151.24 105.945L152.577 107.007L154.14 106.106L154.005 108.142L155.8 109.567C155.509 109.969 155.123 110.291 154.671 110.496C154.23 110.676 153.795 110.767 153.378 110.767C151.855 110.767 150.88 109.578 150.619 108.473C150.392 107.512 150.624 106.623 151.24 105.945ZM142.035 112.376C141.807 111.415 142.04 110.526 142.656 109.847L143.992 110.909L145.556 110.008L145.421 112.044L147.217 113.471C146.934 113.862 146.552 114.187 146.086 114.399C145.646 114.579 145.211 114.67 144.793 114.67C143.271 114.67 142.296 113.481 142.035 112.376Z" fill="#161616"/>
<path d="M69.4251 74.6411C69.5094 74.6921 69.6045 74.7178 69.6997 74.7178C69.7874 74.7178 69.8754 74.6961 69.955 74.6522L100.178 58.0147C100.344 57.9231 100.448 57.7502 100.452 57.5603C100.456 57.3704 100.359 57.193 100.197 57.0948C96.3041 54.7344 90.3282 51.1056 84.475 47.5512C79.2708 44.3909 74.1636 41.2895 70.7038 39.1912C70.5418 39.093 70.3396 39.0882 70.1737 39.1803C70.0077 39.2717 69.903 39.4448 69.899 39.6347C69.8047 44.2222 69.6544 51.2848 69.5075 58.1844C69.379 64.2323 69.2528 70.155 69.1695 74.1755C69.1658 74.3654 69.2631 74.5428 69.4251 74.6411ZM70.9403 40.5767C74.3627 42.653 79.1022 45.531 83.9255 48.4599C89.3983 51.7833 94.9776 55.1712 98.8618 57.5271L70.2492 73.2787C70.3322 69.3039 70.4488 63.8095 70.5678 58.2078C70.7051 51.7533 70.8454 45.157 70.9403 40.5767Z" fill="#161616"/>
<path d="M77.6822 64.9396C78.3462 64.9396 79.0062 64.7691 79.6095 64.4363C81.2302 63.4585 81.7254 62.009 81.644 60.7571C82.185 61.1419 82.8201 61.3886 83.4937 61.4654C83.4229 61.6563 83.4651 61.8794 83.6204 62.0308C84.3101 62.7027 84.1697 63.5015 83.7249 63.9949C83.2798 64.4884 82.5005 64.7088 81.7636 64.0892C81.539 63.9007 81.205 63.9299 81.0168 64.1548C80.8289 64.3797 80.8578 64.7146 81.0826 64.9029C81.6056 65.3422 82.1681 65.5281 82.7019 65.5281C83.4086 65.5281 84.0652 65.2022 84.5119 64.7067C85.2551 63.8823 85.4717 62.5287 84.5264 61.4468C84.9906 61.3767 85.4457 61.2242 85.8717 60.9892C87.8569 59.7912 88.154 57.886 87.7704 56.5024C87.2846 54.7509 85.7365 53.528 84.0056 53.528C83.3548 53.528 82.6964 53.6923 82.0289 54.0264C80.6518 54.7846 79.9051 56.2474 79.9807 57.7237C79.337 57.2507 78.5614 56.9751 77.7439 56.9751C77.0932 56.9751 76.435 57.1392 75.7675 57.4733C73.8486 58.5297 73.1451 60.9533 74.1996 62.8758C74.8968 64.1487 76.2314 64.9393 77.6822 64.9396ZM80.4867 60.2344C80.8482 61.5395 80.316 62.7701 79.0804 63.5158C78.6513 63.7522 78.1681 63.877 77.6824 63.877H77.6822C77.6689 63.877 77.6562 63.8746 77.6435 63.8744L77.5793 61.5822L75.872 60.47L77.5287 59.7553L77.4807 58.0546C77.5685 58.0464 77.6565 58.0376 77.7434 58.0376C78.9996 58.0379 80.1278 58.9411 80.4867 60.2344ZM86.7481 56.7876C87.1099 58.0926 86.5773 59.3233 85.3418 60.0693C84.9129 60.3056 84.4294 60.4304 83.9438 60.4304H83.9435C83.9306 60.4304 83.9176 60.428 83.9048 60.4278L83.8407 58.1354L82.1333 57.0231L83.7901 56.3088L83.7421 54.6078C83.8301 54.5995 83.9181 54.5908 84.005 54.5908C85.261 54.5908 86.3889 55.494 86.7481 56.7876Z" fill="#161616"/>
</g>
<defs>
<clipPath id="clip0_365_1812">
<rect width="294" height="213" fill="white"/>
</clipPath>
</defs>
</svg>
