<svg width="214" height="147" viewBox="0 0 214 147" fill="none" xmlns="http://www.w3.org/2000/svg">
<g clipPath="url(#clip0_267_716)">
<path d="M209.915 79.5934L210.906 78.9974L193.593 74.9991H193.593C198.813 72.1561 204.611 70.1699 210.906 69.7377L188.834 60.764C192.509 59.2345 196.716 58.2498 201.533 58.0062L165.337 44.7966L165.917 33.9369L78.3582 0.443726C75.5924 16.9366 78.3582 40.2803 78.3582 40.2803L84.2305 45.6655L87.3143 38.7865L92.193 43.8937C90.9119 45.6425 89.7267 47.562 88.6809 49.6629L88.6791 49.6609L88.6252 49.7727C88.5448 49.9356 88.4663 50.1009 88.3876 50.2658L85.1859 56.9065L78.3582 50.9026C79.1483 62.4497 84.2305 68.6187 84.2305 68.6187L109.748 80.9955L109.288 81.1535L84.2305 68.6187C84.2305 68.6187 46.7107 40.9513 9.23386 59.5228L27.1507 68.6036C13.7926 66.9133 3.85167 72.9589 3.85167 72.9589L14.7253 78.5749L14.9402 78.4027L15.0632 78.7495L14.7253 78.5751L12.3724 80.4634C4.7037 81.8839 0.443359 85.915 0.443359 85.915L8.54434 90.0828L4.51436 89.6536L1.11114 91.567C0.829575 91.7252 0.842212 92.135 1.13309 92.2753L36.6409 109.425L35.7985 109.938L0.443359 91.9424C0.443359 91.9424 0.718055 99.3183 0.907394 102.161L91.8761 146.26C91.9302 146.287 91.9863 146.297 92.0406 146.295L92.3728 146.505C92.3728 146.505 142.55 114.479 157.13 114.479L159.781 115.237L168.396 111.257C168.396 111.257 200.681 83.0207 213.556 87.7585V79.6096C213.557 79.6098 212.209 79.4898 209.915 79.5934Z" fill="#FFFAEE"/>
<path d="M213.996 79.5773C213.995 79.5607 213.994 79.544 213.991 79.5276C213.988 79.5136 213.984 79.5005 213.98 79.487C213.976 79.473 213.973 79.459 213.967 79.4457C213.962 79.4317 213.954 79.4187 213.947 79.4053C213.941 79.3936 213.935 79.3816 213.928 79.3703C213.921 79.3581 213.911 79.3472 213.902 79.3359C213.894 79.325 213.886 79.3135 213.876 79.3035C213.867 79.2935 213.856 79.2853 213.845 79.2764C213.834 79.2667 213.824 79.2565 213.812 79.2478C213.799 79.2389 213.785 79.2321 213.772 79.2245C213.76 79.2183 213.75 79.2108 213.738 79.2054C213.714 79.1943 213.687 79.1857 213.661 79.1792C213.659 79.1788 213.657 79.1779 213.655 79.1775C213.655 79.1772 213.654 79.1772 213.654 79.177L194.949 74.857C199.778 72.3526 205.142 70.5786 210.935 70.1805C211.141 70.1665 211.31 70.0119 211.343 69.8077C211.375 69.6038 211.263 69.4043 211.072 69.3267L190.018 60.7666C193.539 59.4375 197.385 58.6604 201.554 58.4499C201.765 58.439 201.939 58.2812 201.97 58.0726C202.002 57.8641 201.882 57.6619 201.684 57.5896L165.797 44.4928L166.36 33.9608C166.37 33.7684 166.255 33.5915 166.075 33.5225L78.5159 0.0293792C78.3917 -0.0181052 78.2529 -0.00745447 78.1374 0.0588906C78.0219 0.124792 77.9423 0.239287 77.9203 0.370424C75.1758 16.7366 77.8895 40.0987 77.9172 40.3328C77.9299 40.4384 77.9798 40.536 78.058 40.6077L83.9304 45.993C84.0353 46.0893 84.1796 46.1288 84.3197 46.1004C84.4592 46.0715 84.5762 45.9774 84.6345 45.8472L87.4485 39.5699L91.6166 43.9332C90.7661 45.1165 89.9815 46.3407 89.2669 47.605C88.9281 48.2043 88.6095 48.8154 88.3018 49.4325C88.2945 49.4447 88.2852 49.4553 88.279 49.468L88.153 49.7294C88.0865 49.8654 88.0207 50.0018 87.9557 50.1388L85.0394 56.1875L78.6502 50.5692C78.5152 50.4507 78.3221 50.4252 78.1609 50.5049C77.9997 50.5845 77.9026 50.7536 77.915 50.9331C78.4598 58.8939 80.9877 64.2909 82.5773 66.9629C79.1238 64.7247 71.2421 60.0563 60.9229 56.6847C52.7592 54.0174 44.677 52.6652 36.8964 52.6652C36.8514 52.6652 36.8057 52.6654 36.7609 52.6654C26.9739 52.6852 17.646 54.8586 9.03637 59.1251C8.88583 59.1996 8.79049 59.3525 8.78961 59.5207C8.78894 59.6887 8.88295 59.8427 9.0326 59.9185L24.8617 67.941C12.6801 67.1699 3.71538 72.5221 3.62071 72.5796C3.4837 72.6628 3.40233 72.8139 3.40787 72.9741C3.41341 73.1347 3.5052 73.2794 3.64776 73.3531L14.3458 78.8786L91.3747 118.663C91.5401 118.749 91.7407 118.722 91.878 118.596C98.2126 112.777 112.58 109.011 133.426 107.705C143.15 107.096 152.219 107.155 157.792 107.293C151.861 108.072 141.931 109.548 131.32 111.874C108.92 116.783 94.193 122.956 87.5374 130.226L1.23602 85.8244C2.54809 84.7742 6.45746 82.0106 12.4527 80.8991C12.6934 80.8545 12.8524 80.6229 12.8078 80.3819C12.7939 80.3071 12.7608 80.2419 12.7163 80.1866C12.6174 80.0633 12.4571 79.9958 12.2913 80.0262C4.58248 81.4554 0.316156 85.4246 0.138346 85.593C0.0336998 85.6917 -0.0161845 85.8353 0.00399093 85.9777C0.0241663 86.1202 0.112184 86.2442 0.24011 86.3101L7.32013 89.9527L87.4356 131.171C87.5001 131.204 87.5695 131.22 87.6382 131.22C87.7622 131.22 87.8837 131.168 87.9701 131.071C94.2939 123.937 109.347 117.599 131.502 112.743C137.493 111.43 143.265 110.388 148.22 109.59C143.637 110.737 138.359 112.161 132.883 113.843C111.561 120.393 97.4495 127.562 90.9302 135.155L1.40142 91.9128L4.7308 90.0407C4.86072 89.9678 4.93877 89.8386 4.95362 89.7008C4.96315 89.6125 4.94697 89.5204 4.90019 89.4368C4.78024 89.2231 4.50976 89.1468 4.29648 89.2672L0.893261 91.1804C0.750038 91.2607 0.637854 91.379 0.563582 91.5179C0.519683 91.505 0.47379 91.4972 0.425901 91.4992C0.181136 91.5083 -0.00975496 91.7145 -0.000664938 91.9592C0.00199556 92.0331 0.27647 99.3743 0.464035 102.191C0.474677 102.35 0.569789 102.491 0.713234 102.561L91.6791 146.659C91.7613 146.699 91.8483 146.719 91.9358 146.73C91.9553 146.774 91.9746 146.801 91.9775 146.805C92.0731 146.936 92.1622 147 92.2832 147C92.4848 147 92.7743 146.823 93.3273 146.484C93.8141 146.185 94.524 145.742 95.4262 145.18C140.621 117.002 155.263 113.561 159.588 115.637C159.708 115.694 159.846 115.695 159.966 115.64L168.581 111.66C168.62 111.643 168.655 111.619 168.687 111.591C169.008 111.311 200.918 83.582 213.403 88.1751C213.538 88.2252 213.691 88.2057 213.809 88.1225C213.928 88.0397 213.999 87.9037 213.999 87.7586V79.6099C213.999 79.5988 213.997 79.5884 213.996 79.5773ZM120.337 99.7777C107.606 100.511 97.4171 102.712 96.0374 103.02L27.3581 68.2112C27.353 68.2083 27.3479 68.2059 27.3428 68.2035L10.2307 59.5305C29.1776 50.4816 48.0514 53.4167 60.6211 57.5195C74.4637 62.0374 83.8734 68.9069 83.967 68.9759C83.9758 68.9823 83.9858 68.987 83.9949 68.9927C84.0053 68.9994 84.0155 69.0063 84.0268 69.012C84.0302 69.0138 84.0331 69.0163 84.0366 69.0178L153.03 102.482C142.01 99.4364 129.741 99.2365 120.337 99.7777ZM84.8926 57.2397C84.9968 57.3313 85.1376 57.369 85.2735 57.3413C85.4094 57.3138 85.5245 57.2241 85.5848 57.0992L88.8002 50.4301L99.2158 61.3326C99.3446 61.4671 99.5431 61.5073 99.7138 61.4327L107.36 58.0933L115.461 68.8851C115.597 69.0668 115.849 69.1161 116.043 68.9992L122.05 65.3928L129.234 73.5006C129.298 73.5727 129.383 73.622 129.478 73.6411L138.328 75.4344C138.469 75.4628 138.614 75.4215 138.719 75.3241L142.762 71.5513L147.177 79.8192C147.24 79.9379 147.354 80.0215 147.486 80.0462L151.954 80.8836L154.957 85.468C155.024 85.5712 155.132 85.6413 155.253 85.6622L162.208 86.8497C161.663 89.0997 159.641 98.6643 162.591 106.133L84.5153 68.2638C83.9776 67.5649 79.8284 61.8829 78.8888 51.96L84.8926 57.2397ZM87.2385 38.3493C87.0931 38.3742 86.9696 38.4702 86.9093 38.6049L84.077 44.9232L78.7795 40.0652C78.5451 37.9799 76.2449 16.5409 78.7076 1.05273L165.457 34.2364L163.056 79.1662H157.084L153.898 70.8808C153.852 70.7632 153.759 70.6704 153.642 70.6256L147.891 68.4322L143.281 58.7811C143.214 58.6398 143.077 58.5446 142.921 58.5304C142.765 58.5166 142.613 58.5857 142.522 58.7128L137.547 65.6142L129.234 61.1121L122.655 51.9472C122.578 51.8389 122.455 51.7712 122.322 51.7632C122.189 51.755 122.059 51.8076 121.969 51.9059L116.329 58.0482L107.862 46.4194C107.724 46.2299 107.463 46.1807 107.266 46.3065L99.7107 51.1213L87.6345 38.48C87.5323 38.3733 87.3842 38.3242 87.2385 38.3493ZM99.3209 51.998C99.4672 52.1511 99.7011 52.1795 99.8796 52.0656L107.39 47.279L115.931 59.0086C116.009 59.116 116.131 59.1828 116.264 59.1903C116.397 59.1981 116.526 59.1455 116.616 59.0474L122.253 52.9079L128.573 61.7127C128.612 61.7671 128.663 61.8121 128.722 61.8441L137.468 66.5806C137.664 66.6869 137.908 66.6309 138.038 66.4499L142.803 59.8389L147.167 68.9752C147.216 69.0779 147.303 69.158 147.409 69.1986L153.141 71.3849L156.366 79.7697C156.432 79.9408 156.596 80.0539 156.78 80.0539H163.476C163.712 80.0539 163.907 79.8693 163.919 79.6337L165.747 45.4194L199.443 57.7169C191.671 58.4809 184.962 61.3085 179.476 66.137C174.712 70.3303 170.862 76.0297 168.034 83.077C164.403 92.1216 163.405 101.123 163.133 105.03C160.422 97.0434 163.154 86.7211 163.184 86.6094C163.216 86.4885 163.197 86.3598 163.129 86.2542C163.062 86.1488 162.954 86.0767 162.83 86.0556L155.592 84.8199L152.592 80.239C152.526 80.138 152.421 80.0681 152.303 80.0462L147.858 79.213L143.272 70.6241C143.207 70.5025 143.089 70.4179 142.953 70.3955C142.817 70.3724 142.679 70.4148 142.578 70.5087L138.281 74.5193L129.798 72.8008L122.469 64.5283C122.327 64.3683 122.091 64.3324 121.909 64.4422L115.929 68.0324L107.858 57.28C107.734 57.1156 107.514 57.0575 107.326 57.1398L99.6426 60.4955L89.2372 49.6038C90.158 47.7914 91.178 46.129 92.2589 44.6057L99.3209 51.998ZM193.579 74.5575C193.438 74.5619 193.308 74.6325 193.229 74.747C192.497 75.1531 191.767 75.5809 191.039 76.0311C185.869 79.2309 180.808 83.5423 175.998 88.8452C169.909 95.5596 165.755 102.206 164.01 105.201C164.265 101.418 165.234 92.4207 168.865 83.3854C173.286 72.3854 179.978 64.981 188.83 61.2421L209.055 69.4654C203.853 70.0778 198.665 71.7876 193.579 74.5575ZM176.669 89.4261C180.968 84.6888 186.776 79.3563 193.761 75.4941L210.246 79.3011C206.928 79.5553 201.425 80.2789 195.125 82.3225C189.119 84.2707 183.571 87.0195 178.635 90.4925C175.136 92.9544 171.942 95.7861 169.078 98.9592C171.084 96.0997 173.634 92.7715 176.669 89.4261ZM133.379 106.819C112.269 108.141 98.1855 111.813 91.509 117.734L4.79465 72.9466C7.28266 71.6512 16.0195 67.6656 27.0187 69.034L95.7794 103.884C95.8723 103.931 95.9785 103.944 96.0802 103.92C96.1864 103.896 106.843 101.442 120.403 100.663C131.846 100.005 147.561 100.45 159.964 105.846L161.348 106.517C156.793 106.341 145.601 106.054 133.379 106.819ZM133.135 114.694C143.382 111.546 152.937 109.304 158.513 108.095C161.552 107.702 163.394 107.511 163.516 107.498C163.52 107.498 163.524 107.496 163.528 107.495C163.55 107.493 163.571 107.49 163.591 107.484C163.592 107.484 163.594 107.484 163.595 107.484C163.597 107.483 163.599 107.482 163.601 107.481C163.718 107.448 163.814 107.369 163.87 107.265C173.082 92.8228 186.081 86.1941 195.367 83.1766C204.123 80.3313 211.315 80.071 213.112 80.0533V87.1482C207.561 85.5712 198.414 89.0034 185.901 97.3622C176.695 103.512 168.843 110.282 168.153 110.881L159.778 114.749C152.966 111.87 131.164 121.852 94.9577 144.427C94.0855 144.97 93.3231 145.446 92.8156 145.757V144.936C96.1161 142.626 141.408 111.212 159.649 112.742C159.716 112.747 159.783 112.737 159.846 112.713L166.946 109.966C166.997 109.946 167.043 109.918 167.083 109.882C167.375 109.619 196.513 83.6011 212.389 85.8002C212.631 85.8326 212.856 85.6642 212.889 85.4212C212.923 85.1785 212.753 84.9544 212.511 84.9209C205.654 83.9725 195.816 87.7815 183.271 96.2439C174.419 102.215 167.283 108.515 166.552 109.167L159.62 111.849C151.545 111.225 137.744 116.495 118.601 127.513C106.278 134.606 95.59 141.926 92.8153 143.854V138.736C92.8153 138.491 92.6167 138.292 92.3719 138.292C92.1272 138.292 91.9285 138.491 91.9285 138.736V143.991L2.75339 99.9313C2.53368 99.823 2.26785 99.9131 2.15944 100.133C2.05102 100.353 2.14103 100.619 2.36075 100.727L91.9287 144.981V145.793L1.33269 101.875C1.18281 99.4806 0.985935 94.5271 0.91388 92.6604C0.922748 92.665 0.930952 92.671 0.940042 92.6752L19.3724 101.578L36.1894 109.7L90.8541 136.103C90.9158 136.133 90.9816 136.147 91.0466 136.147C91.1749 136.147 91.3006 136.092 91.3871 135.988C97.602 128.539 112.038 121.176 133.135 114.694Z" fill="#161616"/>
<path d="M105.298 32.9735L99.2824 38.0572C99.0953 38.2154 99.0716 38.4955 99.2297 38.6825C99.3174 38.7866 99.4425 38.8401 99.5686 38.8401C99.6697 38.8401 99.7713 38.8059 99.8544 38.7353L105.639 33.8473L108.5 41.1876C108.568 41.3632 108.736 41.4701 108.913 41.4701C108.967 41.4701 109.021 41.4604 109.075 41.4397C109.303 41.3507 109.415 41.0933 109.326 40.865L106.355 33.242L111.39 28.9879C111.577 28.8297 111.6 28.5497 111.442 28.3626C111.284 28.1754 111.004 28.1516 110.818 28.3098L106.015 32.3684L102.099 22.3219C102.01 22.0936 101.753 21.9809 101.525 22.0696C101.296 22.1586 101.184 22.416 101.273 22.6443L105.298 32.9735Z" fill="#161616"/>
<path d="M125.527 30.7043C125.299 30.7932 125.187 31.0506 125.275 31.279L129.301 41.6079L123.285 46.6916C123.098 46.8498 123.075 47.1299 123.233 47.3169C123.32 47.421 123.446 47.4745 123.572 47.4745C123.673 47.4745 123.774 47.4401 123.857 47.3697L129.642 42.4817L132.503 49.8221C132.571 49.9974 132.739 50.1048 132.916 50.1048C132.97 50.1048 133.024 50.0948 133.077 50.0741C133.306 49.9852 133.418 49.7275 133.329 49.4994L130.358 41.8764L135.392 37.6223C135.58 37.4641 135.603 37.1841 135.445 36.9971C135.287 36.81 135.007 36.786 134.82 36.9442L130.018 41.0028L126.102 30.9565C126.013 30.728 125.756 30.6153 125.527 30.7043Z" fill="#161616"/>
</g>
<defs>
<clipPath id="clip0_267_716">
<rect width="214" height="147" fill="white"/>
</clipPath>
</defs>
</svg>
