<svg width="21" height="16" viewBox="0 0 21 16" fill="none" xmlns="http://www.w3.org/2000/svg">
<path d="M18.8235 0.470588C17.7788 0.141176 16.6306 0 15.5294 0C13.6941 0 11.7176 0.376471 10.3529 1.41176C8.98823 0.376471 7.01176 0 5.17647 0C3.34118 0 1.36471 0.376471 0 1.41176V15.2C0 15.4353 0.235294 15.6706 0.470588 15.6706C0.564706 15.6706 0.611765 15.6235 0.705882 15.6235C1.97647 15.0118 3.81176 14.5882 5.17647 14.5882C7.01176 14.5882 8.98823 14.9647 10.3529 16C11.6235 15.2 13.9294 14.5882 15.5294 14.5882C17.0824 14.5882 18.6824 14.8706 20 15.5765C20.0941 15.6235 20.1412 15.6235 20.2353 15.6235C20.4706 15.6235 20.7059 15.3882 20.7059 15.1529V1.41176C20.1412 0.988235 19.5294 0.705882 18.8235 0.470588ZM18.8235 13.1765C17.7882 12.8471 16.6588 12.7059 15.5294 12.7059C13.9294 12.7059 11.6235 13.3176 10.3529 14.1176V3.29412C11.6235 2.49412 13.9294 1.88235 15.5294 1.88235C16.6588 1.88235 17.7882 2.02353 18.8235 2.35294V13.1765Z" fill="#CED4DA"/>
<path d="M15.5294 5.64706C16.3576 5.64706 17.1576 5.73176 17.8823 5.89176V4.46117C17.1388 4.32 16.3388 4.23529 15.5294 4.23529C13.9294 4.23529 12.48 4.50823 11.2941 5.01647V6.57882C12.3576 5.97647 13.8353 5.64706 15.5294 5.64706Z" fill="#CED4DA"/>
<path d="M11.2941 7.52001V9.08236C12.3576 8.48001 13.8353 8.1506 15.5294 8.1506C16.3576 8.1506 17.1576 8.2353 17.8823 8.3953V6.96471C17.1388 6.82354 16.3388 6.73883 15.5294 6.73883C13.9294 6.73883 12.48 7.02118 11.2941 7.52001Z" fill="#CED4DA"/>
<path d="M15.5294 9.25177C13.9294 9.25177 12.48 9.52471 11.2941 10.0329V11.5953C12.3576 10.9929 13.8353 10.6635 15.5294 10.6635C16.3576 10.6635 17.1576 10.7482 17.8823 10.9082V9.47765C17.1388 9.32706 16.3388 9.25177 15.5294 9.25177Z" fill="#CED4DA"/>
</svg>
